<svg width="106" height="106" viewBox="0 0 106 106" fill="none" xmlns="http://www.w3.org/2000/svg">
<rect width="106" height="106" fill="#181818"/>
<g clip-path="url(#clip0_81_775)">
<path d="M57.0095 14.7583H49.9906C49.5061 14.7583 49.1133 15.1519 49.1133 15.6374V22.6704C49.1133 23.1559 49.5061 23.5495 49.9906 23.5495H57.0095C57.4941 23.5495 57.8869 23.1559 57.8869 22.6704V15.6374C57.8869 15.1519 57.4941 14.7583 57.0095 14.7583Z" fill="#2F9E41"/>
<path d="M67.5378 14.7583H60.519C60.0344 14.7583 59.6416 15.1519 59.6416 15.6374V22.6704C59.6416 23.1559 60.0344 23.5495 60.519 23.5495H67.5378C68.0224 23.5495 68.4152 23.1559 68.4152 22.6704V15.6374C68.4152 15.1519 68.0224 14.7583 67.5378 14.7583Z" fill="#2F9E41"/>
<path d="M46.4812 25.3077H39.4623C38.9778 25.3077 38.585 25.7013 38.585 26.1869V33.2198C38.585 33.7054 38.9778 34.0989 39.4623 34.0989H46.4812C46.9657 34.0989 47.3585 33.7054 47.3585 33.2198V26.1869C47.3585 25.7013 46.9657 25.3077 46.4812 25.3077Z" fill="#2F9E41"/>
<path d="M57.0095 25.3077H49.9906C49.5061 25.3077 49.1133 25.7013 49.1133 26.1869V33.2198C49.1133 33.7054 49.5061 34.0989 49.9906 34.0989H57.0095C57.4941 34.0989 57.8869 33.7054 57.8869 33.2198V26.1869C57.8869 25.7013 57.4941 25.3077 57.0095 25.3077Z" fill="#2F9E41"/>
<path d="M46.4812 35.8572H39.4623C38.9778 35.8572 38.585 36.2508 38.585 36.7363V43.7693C38.585 44.2548 38.9778 44.6484 39.4623 44.6484H46.4812C46.9657 44.6484 47.3585 44.2548 47.3585 43.7693V36.7363C47.3585 36.2508 46.9657 35.8572 46.4812 35.8572Z" fill="#2F9E41"/>
<path d="M57.0095 35.8572H49.9906C49.5061 35.8572 49.1133 36.2508 49.1133 36.7363V43.7693C49.1133 44.2548 49.5061 44.6484 49.9906 44.6484H57.0095C57.4941 44.6484 57.8869 44.2548 57.8869 43.7693V36.7363C57.8869 36.2508 57.4941 35.8572 57.0095 35.8572Z" fill="#2F9E41"/>
<path d="M67.5378 35.8572H60.519C60.0344 35.8572 59.6416 36.2508 59.6416 36.7363V43.7693C59.6416 44.2548 60.0344 44.6484 60.519 44.6484H67.5378C68.0224 44.6484 68.4152 44.2548 68.4152 43.7693V36.7363C68.4152 36.2508 68.0224 35.8572 67.5378 35.8572Z" fill="#2F9E41"/>
<path d="M46.4812 46.4066H39.4623C38.9778 46.4066 38.585 46.8002 38.585 47.2857V54.3187C38.585 54.8042 38.9778 55.1978 39.4623 55.1978H46.4812C46.9657 55.1978 47.3585 54.8042 47.3585 54.3187V47.2857C47.3585 46.8002 46.9657 46.4066 46.4812 46.4066Z" fill="#2F9E41"/>
<path d="M57.0095 46.4066H49.9906C49.5061 46.4066 49.1133 46.8002 49.1133 47.2857V54.3187C49.1133 54.8042 49.5061 55.1978 49.9906 55.1978H57.0095C57.4941 55.1978 57.8869 54.8042 57.8869 54.3187V47.2857C57.8869 46.8002 57.4941 46.4066 57.0095 46.4066Z" fill="#2F9E41"/>
<path d="M42.9717 23.9891C45.6367 23.9891 47.7972 21.8243 47.7972 19.1539C47.7972 16.4835 45.6367 14.3187 42.9717 14.3187C40.3067 14.3187 38.1462 16.4835 38.1462 19.1539C38.1462 21.8243 40.3067 23.9891 42.9717 23.9891Z" fill="#CD191E"/>
<path d="M21.9287 70.1429V61.3569H23.788V70.1429H21.9287Z" fill="white"/>
<path d="M33.7862 70.1429H31.4231L27.6087 63.4963H27.5547C27.6307 64.6702 27.6686 65.5075 27.6686 66.0083V70.1429H26.0073V61.3569H28.3524L32.1608 67.9376H32.2028C32.1428 66.7958 32.1128 65.9885 32.1128 65.5157V61.3571H33.7862L33.7862 70.1429Z" fill="white"/>
<path d="M41.163 67.7033C41.163 68.4965 40.8771 69.1215 40.3053 69.5783C39.7376 70.035 38.9459 70.2634 37.9303 70.2634C36.9947 70.2634 36.167 70.0871 35.4473 69.7345V68.0038C36.039 68.2682 36.5388 68.4545 36.9467 68.5627C37.3585 68.6708 37.7343 68.7249 38.0742 68.7249C38.482 68.7249 38.7939 68.6468 39.0098 68.4905C39.2297 68.3343 39.3397 68.1019 39.3397 67.7935C39.3397 67.6212 39.2917 67.4689 39.1957 67.3367C39.0998 67.2005 38.9578 67.0703 38.7699 66.9461C38.586 66.8219 38.2081 66.6236 37.6364 66.3511C37.1006 66.0987 36.6988 65.8563 36.4309 65.624C36.163 65.3916 35.9491 65.1212 35.7891 64.8127C35.6292 64.5042 35.5492 64.1436 35.5492 63.731C35.5492 62.9537 35.8111 62.3428 36.3349 61.898C36.8627 61.4533 37.5904 61.231 38.518 61.231C38.9739 61.231 39.4077 61.285 39.8195 61.3932C40.2354 61.5014 40.6692 61.6536 41.121 61.85L40.5212 63.2983C40.0534 63.106 39.6656 62.9718 39.3577 62.8956C39.0538 62.8195 38.7539 62.7814 38.4581 62.7814C38.1062 62.7814 37.8363 62.8636 37.6484 63.0278C37.4605 63.1921 37.3665 63.4064 37.3665 63.6709C37.3665 63.8351 37.4045 63.9794 37.4805 64.1036C37.5564 64.2238 37.6764 64.3419 37.8403 64.4581C38.0083 64.5703 38.4021 64.7746 39.0219 65.0711C39.8415 65.4637 40.4033 65.8584 40.7072 66.255C41.0111 66.6476 41.163 67.1304 41.163 67.7033L41.163 67.7033Z" fill="white"/>
<path d="M46.135 70.1429H44.2758V62.9073H41.8948V61.3568H48.5162V62.9073H46.1352L46.135 70.1429Z" fill="white"/>
<path d="M49.8774 70.1429V61.3569H51.7367V70.1429H49.8774Z" fill="white"/>
<path d="M57.3384 70.1429H55.4792V62.9073H53.0981V61.3568H59.7196V62.9073H57.3385L57.3384 70.1429Z" fill="white"/>
<path d="M68.2177 61.3561V67.0413C68.2177 67.6904 68.0718 68.2593 67.7799 68.7481C67.492 69.2368 67.0742 69.6114 66.5264 69.8718C65.9786 70.1323 65.3309 70.2625 64.5832 70.2625C63.4556 70.2625 62.58 69.974 61.9562 69.3971C61.3325 68.8161 61.0206 68.0229 61.0206 67.0172V61.3561H62.8739V66.7346C62.8739 67.4117 63.0098 67.9085 63.2817 68.225C63.5536 68.5415 64.0034 68.6997 64.6312 68.6997C65.2389 68.6997 65.6787 68.5415 65.9506 68.225C66.2265 67.9044 66.3645 67.4036 66.3645 66.7226V61.356L68.2177 61.3561Z" fill="white"/>
<path d="M73.7494 70.1429H71.8902V62.9073H69.5092V61.3568H76.1306V62.9073H73.7496L73.7494 70.1429Z" fill="white"/>
<path d="M85.4491 65.7384C85.4491 67.1928 85.0892 68.3106 84.3695 69.0918C83.6498 69.8731 82.6182 70.2637 81.2748 70.2637C79.9313 70.2637 78.8997 69.8731 78.18 69.0918C77.4603 68.3106 77.1005 67.1888 77.1005 65.7264C77.1005 64.2641 77.4603 63.1483 78.18 62.3791C78.9037 61.6059 79.9393 61.2192 81.2867 61.2192C82.6342 61.2192 83.6638 61.6079 84.3755 62.3851C85.0912 63.1623 85.4491 64.2801 85.4491 65.7384ZM79.0496 65.7384C79.0496 66.72 79.2355 67.4592 79.6074 67.956C79.9792 68.4528 80.535 68.7012 81.2747 68.7012C82.7581 68.7012 83.4998 67.7136 83.4998 65.7384C83.4998 63.7593 82.7621 62.7697 81.2867 62.7697C80.547 62.7697 79.9893 63.0201 79.6134 63.5209C79.2375 64.0177 79.0496 64.7569 79.0496 65.7384Z" fill="white"/>
<path d="M29.8754 80.6923H28.0461V71.9064H33.0721V73.4328H29.8754V75.6984H32.8502V77.2189H29.8754V80.6923Z" fill="white"/>
<path d="M39.8373 80.6923H34.7872V71.9064H39.8373V73.4328H36.6466V75.3619H39.6154V76.8883H36.6466V79.1539H39.8373V80.6923Z" fill="white"/>
<path d="M48.9479 76.2132C48.9479 77.6595 48.5361 78.7673 47.7124 79.5365C46.8928 80.3057 45.7072 80.6904 44.1559 80.6904H41.6729V71.9044H44.4257C45.8571 71.9044 46.9687 72.283 47.7604 73.0402C48.5521 73.7975 48.9479 74.8552 48.9479 76.2133V76.2132ZM47.0167 76.2612C47.0167 74.3742 46.185 73.4307 44.5217 73.4307H43.5321V79.152H44.3298C46.1211 79.152 47.0167 78.1885 47.0167 76.2614V76.2612Z" fill="white"/>
<path d="M55.815 80.6923H50.7649V71.9064H55.815V73.4328H52.6243V75.3619H55.5931V76.8883H52.6243V79.1539H55.815V80.6923Z" fill="white"/>
<path d="M59.5095 75.8044H60.1093C60.6971 75.8044 61.1309 75.7063 61.4108 75.51C61.6906 75.3136 61.8306 75.0051 61.8306 74.5845C61.8306 74.1678 61.6866 73.8713 61.3988 73.6951C61.1149 73.5188 60.6731 73.4306 60.0733 73.4306H59.5095L59.5095 75.8044ZM59.5095 77.3188V80.6902H57.6503V71.9043H60.2052C61.3967 71.9043 62.2784 72.1226 62.8502 72.5593C63.4219 72.992 63.7078 73.6511 63.7078 74.5365C63.7078 75.0533 63.5659 75.514 63.282 75.9187C62.9981 76.3193 62.5963 76.6338 62.0765 76.8622C63.396 78.8373 64.2556 80.1134 64.6554 80.6903H62.5923L60.4991 77.3189L59.5095 77.3188Z" fill="white"/>
<path d="M71.1261 80.6923L70.4904 78.601H67.2937L66.658 80.6923H64.6548L67.7495 71.8704H70.0226L73.1293 80.6923H71.1261ZM70.0466 77.0385C69.4588 75.1435 69.127 74.0718 69.051 73.8234C68.979 73.575 68.9271 73.3787 68.8951 73.2345C68.7631 73.7473 68.3853 75.0153 67.7615 77.0385L70.0466 77.0385Z" fill="white"/>
<path d="M74.2277 80.6923V71.9064H76.0869V79.1538H79.6435V80.6923H74.2277Z" fill="white"/>
<path d="M46.9272 87.3818H48.1953V89.8257C47.9925 89.9054 47.7829 89.9658 47.5664 90.0068C47.3499 90.0479 47.1312 90.0684 46.9102 90.0684C46.5023 90.0684 46.1662 89.9567 45.9019 89.7334C45.6398 89.5078 45.445 89.2013 45.3174 88.814C45.1921 88.4243 45.1294 87.9834 45.1294 87.4912C45.1294 86.9922 45.1978 86.5501 45.3345 86.165C45.4735 85.7799 45.682 85.478 45.96 85.2593C46.2402 85.0405 46.5911 84.9312 47.0127 84.9312C47.2178 84.9312 47.4149 84.9585 47.604 85.0132C47.7931 85.0656 47.9709 85.1453 48.1372 85.2524L47.9424 85.7139C47.7874 85.6136 47.6336 85.5396 47.481 85.4917C47.3306 85.4438 47.1779 85.4199 47.0229 85.4199C46.7336 85.4199 46.4909 85.5008 46.2949 85.6626C46.099 85.8244 45.9508 86.0602 45.8506 86.3701C45.7503 86.68 45.7002 87.0583 45.7002 87.5049C45.7002 87.8968 45.7424 88.25 45.8267 88.5645C45.9132 88.8766 46.0488 89.1239 46.2334 89.3062C46.418 89.4862 46.6584 89.5762 46.9546 89.5762C47.0868 89.5762 47.2121 89.5671 47.3306 89.5488C47.4513 89.5283 47.563 89.4998 47.6655 89.4634V87.8706H46.9272V87.3818ZM51.3569 88.1201C51.3569 88.4163 51.3319 88.6841 51.2817 88.9233C51.2316 89.1626 51.1553 89.3677 51.0527 89.5386C50.9502 89.7095 50.8203 89.8405 50.6631 89.9316C50.5059 90.0228 50.3201 90.0684 50.106 90.0684C49.9009 90.0684 49.7209 90.0228 49.5659 89.9316C49.411 89.8405 49.2822 89.7106 49.1797 89.542C49.0771 89.3711 48.9997 89.166 48.9473 88.9268C48.8949 88.6852 48.8687 88.4163 48.8687 88.1201C48.8687 87.7054 48.9131 87.3545 49.002 87.0674C49.0908 86.778 49.2275 86.5581 49.4121 86.4077C49.5967 86.255 49.8314 86.1787 50.1162 86.1787C50.3828 86.1787 50.6084 86.2528 50.793 86.4009C50.9775 86.5467 51.1177 86.7643 51.2134 87.0537C51.3091 87.3408 51.3569 87.6963 51.3569 88.1201ZM49.4053 88.1201C49.4053 88.446 49.4303 88.7194 49.4805 88.9404C49.5306 89.1615 49.6081 89.3278 49.7129 89.4395C49.82 89.5511 49.9556 89.6069 50.1196 89.6069C50.2814 89.6069 50.4136 89.5522 50.5161 89.4429C50.6209 89.3335 50.6984 89.1694 50.7485 88.9507C50.7987 88.7297 50.8237 88.4528 50.8237 88.1201C50.8237 87.7943 50.7987 87.522 50.7485 87.3032C50.6984 87.0822 50.6209 86.917 50.5161 86.8076C50.4136 86.696 50.2803 86.6401 50.1162 86.6401C49.8656 86.6401 49.6844 86.7643 49.5728 87.0127C49.4611 87.2588 49.4053 87.6279 49.4053 88.1201ZM52.6421 86.2471V90H52.1191V86.2471H52.6421ZM52.3892 84.8389C52.4963 84.8389 52.5737 84.873 52.6216 84.9414C52.6717 85.0098 52.6968 85.1043 52.6968 85.2251C52.6968 85.3436 52.6706 85.437 52.6182 85.5054C52.5658 85.5737 52.4894 85.6079 52.3892 85.6079C52.2912 85.6079 52.2137 85.5737 52.1567 85.5054C52.0998 85.437 52.0713 85.3436 52.0713 85.2251C52.0713 85.0998 52.0986 85.0041 52.1533 84.938C52.208 84.8719 52.2866 84.8389 52.3892 84.8389ZM54.5664 86.1787C54.9128 86.1787 55.16 86.2892 55.3081 86.5103C55.4562 86.7313 55.5303 87.0514 55.5303 87.4707V90H55.1304L55.0518 89.4668H55.0381C54.9788 89.5944 54.9082 89.7038 54.8262 89.7949C54.7441 89.8838 54.6507 89.9521 54.5459 90C54.4411 90.0456 54.3203 90.0684 54.1836 90.0684C53.9899 90.0684 53.8315 90.0171 53.7085 89.9146C53.5854 89.812 53.4943 89.6776 53.4351 89.5112C53.3758 89.3426 53.3462 89.1615 53.3462 88.9678C53.3462 88.5964 53.4533 88.3081 53.6675 88.103C53.8817 87.8979 54.1859 87.7863 54.5801 87.7681L55.0073 87.7407V87.4844C55.0073 87.1836 54.9663 86.9637 54.8843 86.8247C54.8022 86.6857 54.6701 86.6162 54.4878 86.6162C54.383 86.6162 54.2725 86.6344 54.1562 86.6709C54.0423 86.7074 53.9181 86.7655 53.7837 86.8452L53.6162 86.4487C53.7575 86.3576 53.9079 86.2904 54.0674 86.2471C54.2292 86.2015 54.3955 86.1787 54.5664 86.1787ZM55.0142 88.127L54.6655 88.1509C54.4012 88.1668 54.2041 88.242 54.0742 88.3765C53.9466 88.5086 53.8828 88.7012 53.8828 88.9541C53.8828 89.1888 53.925 89.362 54.0093 89.4736C54.0936 89.5853 54.2098 89.6411 54.3579 89.6411C54.5653 89.6411 54.7259 89.5409 54.8398 89.3403C54.9561 89.1398 55.0142 88.863 55.0142 88.5098V88.127ZM57.7896 86.1787C58.0858 86.1787 58.3102 86.2824 58.4629 86.4897C58.6156 86.6971 58.6919 87.015 58.6919 87.4434V90H58.1655V87.5493C58.1655 87.2463 58.1257 87.0195 58.0459 86.8691C57.9684 86.7188 57.8454 86.6436 57.6768 86.6436C57.4307 86.6436 57.2507 86.7529 57.1367 86.9717C57.0228 87.1904 56.9658 87.5413 56.9658 88.0244V90H56.4395V86.2471H56.8599L56.918 86.7905H56.9521C57.0046 86.6652 57.0718 86.557 57.1538 86.4658C57.2358 86.3747 57.3304 86.304 57.4375 86.2539C57.5446 86.2038 57.6619 86.1787 57.7896 86.1787ZM61.9253 88.1201C61.9253 88.4163 61.9002 88.6841 61.8501 88.9233C61.8 89.1626 61.7236 89.3677 61.6211 89.5386C61.5186 89.7095 61.3887 89.8405 61.2314 89.9316C61.0742 90.0228 60.8885 90.0684 60.6743 90.0684C60.4692 90.0684 60.2892 90.0228 60.1343 89.9316C59.9793 89.8405 59.8506 89.7106 59.748 89.542C59.6455 89.3711 59.568 89.166 59.5156 88.9268C59.4632 88.6852 59.437 88.4163 59.437 88.1201C59.437 87.7054 59.4814 87.3545 59.5703 87.0674C59.6592 86.778 59.7959 86.5581 59.9805 86.4077C60.165 86.255 60.3997 86.1787 60.6846 86.1787C60.9512 86.1787 61.1768 86.2528 61.3613 86.4009C61.5459 86.5467 61.686 86.7643 61.7817 87.0537C61.8774 87.3408 61.9253 87.6963 61.9253 88.1201ZM59.9736 88.1201C59.9736 88.446 59.9987 88.7194 60.0488 88.9404C60.099 89.1615 60.1764 89.3278 60.2812 89.4395C60.3883 89.5511 60.5239 89.6069 60.688 89.6069C60.8498 89.6069 60.9819 89.5522 61.0845 89.4429C61.1893 89.3335 61.2668 89.1694 61.3169 88.9507C61.367 88.7297 61.3921 88.4528 61.3921 88.1201C61.3921 87.7943 61.367 87.522 61.3169 87.3032C61.2668 87.0822 61.1893 86.917 61.0845 86.8076C60.9819 86.696 60.8486 86.6401 60.6846 86.6401C60.4339 86.6401 60.2528 86.7643 60.1411 87.0127C60.0295 87.2588 59.9736 87.6279 59.9736 88.1201Z" fill="white"/>
</g>
<defs>
<clipPath id="clip0_81_775">
<rect width="93" height="80" fill="white" transform="translate(7 13)"/>
</clipPath>
</defs>
</svg>
