<svg width="106" height="106" viewBox="0 0 106 106" fill="none" xmlns="http://www.w3.org/2000/svg">
<rect width="106" height="106" fill="url(#paint0_radial_148_8)"/>
<g clip-path="url(#clip0_148_8)">
<path fill-rule="evenodd" clip-rule="evenodd" d="M51.6667 56.9651C52.321 57.1001 52.9874 57.168 53.6555 57.1677C55.5789 57.2061 57.4678 56.6544 59.0673 55.5872C59.5154 55.2707 59.9425 54.9255 60.3458 54.5537L61.0697 53.8783C63.3832 51.683 65.0473 50.1025 64.7226 46.2659C64.7033 46.0116 64.7674 45.7579 64.9052 45.5432C65.0722 45.2907 65.3327 45.1147 65.6295 45.054C65.9263 44.9932 66.2352 45.0525 66.4882 45.2189C66.6216 45.3069 66.7645 45.3794 66.9144 45.4351C67.0143 45.4735 67.119 45.4985 67.2255 45.5094C67.415 45.5094 67.4082 45.5904 67.442 45.5634C67.4758 45.5364 67.442 45.4621 67.5299 45.2662L68.6529 42.0646C68.7688 41.7327 68.7945 41.3761 68.7273 41.0311C68.7152 40.9824 68.6865 40.9394 68.6461 40.9095C68.5127 40.858 68.3683 40.8418 68.2267 40.8622C67.6967 40.9301 67.1957 41.1429 66.7791 41.4769C66.6522 41.5733 66.507 41.6428 66.3523 41.6811C66.1975 41.7194 66.0366 41.7258 65.8794 41.6998C65.7285 41.6739 65.5843 41.6181 65.4553 41.5357C65.3263 41.4534 65.2151 41.3462 65.1281 41.2204C65.0412 41.0945 64.9803 40.9526 64.949 40.803C64.9177 40.6533 64.9166 40.499 64.9458 40.3489C65.7711 35.5194 65.3991 32.3785 64.3776 30.2508C63.5734 28.6462 62.277 27.3399 60.6773 26.5223C58.2636 28.439 55.3195 29.5705 52.2417 29.7645C49.8512 29.9134 47.548 30.7173 45.5852 32.0881C44.4567 32.8146 43.5931 33.8853 43.1229 35.1411C42.6866 36.5402 42.6538 38.0337 43.0282 39.4505C43.0762 39.6534 43.0684 39.8655 43.0055 40.0643C42.9426 40.263 42.827 40.4411 42.671 40.5796C42.5149 40.7181 42.3243 40.8119 42.1192 40.8509C41.9141 40.89 41.7023 40.8729 41.5061 40.8015L40.6876 40.5043C39.8014 40.1935 39.1655 40.0382 38.9423 40.4705C38.8123 41.5985 38.8741 42.7403 39.1249 43.8478C39.2161 44.4332 39.5165 44.9659 39.9705 45.3473C40.0868 45.4102 40.2171 45.4427 40.3494 45.4418C40.5788 45.4376 40.8065 45.4013 41.0258 45.3338C41.1346 45.2955 41.2488 45.275 41.3641 45.273C41.5142 45.2694 41.6636 45.2954 41.8037 45.3494C41.9438 45.4035 42.0718 45.4846 42.1805 45.5881C42.2892 45.6916 42.3763 45.8155 42.4371 45.9526C42.4978 46.0898 42.5309 46.2376 42.5344 46.3875C42.6291 50.3051 44.3811 51.7911 46.512 53.6419L47.4117 54.4322C48.6369 55.568 50.0895 56.4313 51.6735 56.9651H51.6667ZM53.5 80.0184C54.5355 80.0184 55.5478 80.325 56.4089 80.8995C57.2699 81.474 57.941 82.2905 58.3373 83.2458C58.7336 84.2011 58.8373 85.2522 58.6352 86.2664C58.4332 87.2805 57.9345 88.2121 57.2023 88.9432C56.47 89.6744 55.5371 90.1723 54.5214 90.374C53.5058 90.5757 52.453 90.4722 51.4963 90.0765C50.5395 89.6808 49.7218 89.0107 49.1465 88.151C48.5711 87.2912 48.2641 86.2804 48.2641 85.2464C48.2659 83.8604 48.8181 82.5317 49.7996 81.5516C50.7811 80.5716 52.1119 80.0202 53.5 80.0184ZM61.8882 56.2154L62.3279 56.8503C63.0044 57.8297 63.7552 58.9442 64.4588 59.8155C68.6461 62.4093 77.8461 63.1118 81.4449 65.1111C90.6044 70.2108 87.2626 82.5919 87.9255 91.5079C87.7226 93.6153 86.5252 94.8176 84.1779 95H81.6344L84.4214 73.8785C84.4865 73.5214 84.4742 73.1545 84.3853 72.8026C84.2964 72.4506 84.133 72.1218 83.9061 71.8382C83.6791 71.5547 83.394 71.323 83.0698 71.1588C82.7456 70.9945 82.3899 70.9016 82.0267 70.8863H54.6702C55.5294 64.6113 63.2276 64.5775 63.417 61.646C62.4425 60.4738 61.5389 59.2445 60.7111 57.9648L60.3932 57.492C58.5717 58.864 56.3565 59.6147 54.075 59.6332C51.2888 59.54 48.6201 58.4903 46.5188 56.6612C46.0325 58.312 45.3513 59.8993 44.4894 61.3893C44.4226 61.4775 44.3427 61.5549 44.2526 61.619C44.5705 64.1992 53.4255 67.4955 53.96 70.9133H25.4264C25.0683 70.9329 24.7184 71.0279 24.3996 71.1921C24.0808 71.3563 23.8005 71.5859 23.5769 71.8659C23.3533 72.146 23.1915 72.47 23.1022 72.8169C23.013 73.1638 22.9981 73.5255 23.0588 73.8785L25.8458 95H23.2752C20.9279 94.8176 19.7305 93.6491 19.5344 91.5079C19.6561 82.0515 16.0641 70.6498 26.0149 65.1111C29.6611 63.0847 39.0573 62.4093 43.1567 59.7075C43.8306 58.2562 44.4025 56.7598 44.8682 55.2292C42.6088 53.2906 40.7349 51.6087 40.3155 47.6979C39.8031 47.6927 39.3004 47.5579 38.8544 47.3061C38.3536 46.9791 37.9233 46.5556 37.5888 46.0603C37.2542 45.565 37.0221 45.008 36.9061 44.4219C36.5744 42.9712 36.5034 41.4732 36.6964 39.9977C36.7108 39.9029 36.7358 39.81 36.7708 39.7207C37.2444 38.3698 37.9344 37.8767 38.8002 37.7957L38.5432 37.6268C38.1914 33.2634 39.2197 25.6915 34.4844 24.2595C43.4814 13.1483 53.8314 7.11648 61.6176 16.9781C70.8514 17.4645 74.6329 31.9462 67.5435 38.3428L67.5097 38.6197C67.6925 38.58 67.8778 38.5529 68.0644 38.5387C68.6381 38.4829 69.2158 38.5931 69.7285 38.8561C70.0127 39.0049 70.2644 39.2088 70.4688 39.4558C70.6732 39.7029 70.8263 39.9881 70.9191 40.2949C71.13 41.0716 71.1112 41.8927 70.8649 42.659L69.6947 45.9754C69.5674 46.4991 69.2816 46.9708 68.8761 47.3264C68.3686 47.6939 67.7384 47.8512 67.1173 47.7654H67.0294C66.8873 51.4669 65.0541 53.2096 62.6188 55.5196L61.9017 56.1951L61.8611 56.2356L61.8882 56.2154Z" fill="white"/>
</g>
<defs>
<radialGradient id="paint0_radial_148_8" cx="0" cy="0" r="1" gradientUnits="userSpaceOnUse" gradientTransform="translate(53 53) rotate(90) scale(53)">
<stop offset="0.0104167" stop-color="#960089"/>
<stop offset="1" stop-color="#79006F"/>
</radialGradient>
<clipPath id="clip0_148_8">
<rect width="69" height="83" fill="white" transform="translate(19 12)"/>
</clipPath>
</defs>
</svg>
