<svg width="35" height="35" viewBox="0 0 35 35" fill="none" xmlns="http://www.w3.org/2000/svg">
<rect width="35" height="35" rx="5" fill="#222222"/>
<path d="M14.25 28.0052C16.0432 28.0052 17.5 26.5873 17.5 24.8385V21.6719H14.25C12.4568 21.6719 11 23.0898 11 24.8385C11 26.5873 12.4568 28.0052 14.25 28.0052Z" fill="#0ACF83"/>
<path d="M11 18.4948C11 16.7476 12.4568 15.3281 14.25 15.3281H17.5V21.6615H14.25C12.4568 21.6615 11 20.2436 11 18.4948Z" fill="#A259FF"/>
<path d="M11 12.1667C11 10.4194 12.4568 9 14.25 9H17.5V15.3333H14.25C12.4568 15.3333 11 13.9154 11 12.1667Z" fill="#F24E1E"/>
<path d="M17.5 9H20.75C22.5432 9 24 10.4194 24 12.1667C24 13.9154 22.5448 15.3333 20.75 15.3333H17.5V9Z" fill="#FF7262"/>
<path d="M24 18.4948C24 20.2436 22.5448 21.6615 20.75 21.6615C18.9552 21.6615 17.5 20.2436 17.5 18.4948C17.5 16.7476 18.9552 15.3281 20.75 15.3281C22.5448 15.3281 24 16.7476 24 18.4948Z" fill="#1ABCFE"/>
</svg>
