<svg width="35" height="35" viewBox="0 0 35 35" fill="none" xmlns="http://www.w3.org/2000/svg">
<rect width="35" height="35" rx="5" fill="#222222"/>
<path fill-rule="evenodd" clip-rule="evenodd" d="M14.1614 16.9209C11.8118 16.9209 11.3193 15.891 11.3193 15.0262C11.3193 14.9442 11.3884 14.8781 11.4743 14.8781H12.1684C12.2448 14.8781 12.3092 14.9317 12.3211 15.0035C12.4261 15.6791 12.7373 16.0197 14.159 16.0197C15.2908 16.0197 15.7715 15.7759 15.7715 15.2017C15.7715 14.8713 15.6343 14.6263 13.8763 14.4623C12.4058 14.3233 11.497 14.0145 11.497 12.89C11.497 11.8555 12.4106 11.2391 13.9419 11.2391C15.6617 11.2391 16.5133 11.8088 16.6206 13.0347C16.6242 13.0769 16.6087 13.1179 16.5789 13.1486C16.5491 13.1783 16.5073 13.1965 16.4644 13.1965H15.7679C15.6951 13.1965 15.6319 13.1475 15.6176 13.0814C15.4494 12.3716 15.0439 12.1438 13.9395 12.1438C12.7039 12.1438 12.5608 12.5551 12.5608 12.8627C12.5608 13.2364 12.7302 13.3457 14.3975 13.5565C16.0482 13.7662 16.8317 14.0612 16.8317 15.1698C16.8317 16.2875 15.8561 16.9278 14.1542 16.9278L14.1614 16.9209ZM12.5024 20.9997C12.3056 20.9997 12.1112 20.9507 11.9394 20.8562L10.1469 19.8422C9.87853 19.6986 10.0097 19.6485 10.098 19.6189C10.4546 19.4992 10.5273 19.473 10.909 19.2657C10.9495 19.244 11.002 19.252 11.0426 19.2748L12.4201 20.0552C12.4702 20.0814 12.5406 20.0814 12.5871 20.0552L17.9576 17.0941C18.0077 17.0668 18.0399 17.0121 18.0399 16.9551V11.0363C18.0399 10.9771 18.0077 10.9247 17.9564 10.8951L12.5871 7.93624C12.537 7.90776 12.4714 7.90776 12.4213 7.93624L7.05431 10.8951C7.00183 10.9235 6.96963 10.9782 6.96963 11.0352V16.9551C6.96963 17.0121 7.00183 17.0656 7.05312 17.093L8.52367 17.9042C9.32156 18.2858 9.81055 17.8358 9.81055 17.3846V11.5411C9.81055 11.4579 9.87853 11.3929 9.96679 11.3929H10.6466C10.7313 11.3929 10.8017 11.4567 10.8017 11.5411V17.3869C10.8017 18.4043 10.2208 18.9877 9.21183 18.9877C8.90174 18.9877 8.65605 18.9877 7.97385 18.6664L6.56294 17.8905C6.21468 17.698 6 17.3391 6 16.9551V11.0352C6 10.6501 6.21468 10.2901 6.56294 10.0998L11.9383 7.13757C12.2782 6.95414 12.7302 6.95414 13.0677 7.13757L18.4371 10.101C18.7841 10.2924 19 10.6501 19 11.0363V16.9563C19 17.3402 18.7841 17.698 18.4371 17.8916L13.0677 20.8539C12.896 20.9484 12.7004 20.9974 12.5024 20.9974V20.9997Z" fill="#689F63"/>
<path d="M29.8223 24.5C29.4642 25.097 28.666 25.3009 28.0431 24.9577C27.919 24.8894 27.8113 24.8041 27.7212 24.7071L24.7357 26.3592C24.7785 26.4827 24.8016 26.6149 24.8016 26.7524C24.8016 27.4388 24.2197 28 23.4999 28C22.78 28 22.1982 27.4423 22.1982 26.7524C22.1982 26.6297 22.2164 26.5114 22.2509 26.3993L19.2481 24.7377C19.1643 24.8219 19.0671 24.8962 18.9567 24.9577C18.3301 25.3009 17.5356 25.097 17.1775 24.5C16.8194 23.903 17.0321 23.1414 17.655 22.7947C17.7651 22.734 17.8805 22.6906 17.998 22.6632V19.3376C17.8791 19.3103 17.7625 19.2665 17.6513 19.2053C17.0284 18.8621 16.8157 18.097 17.1738 17.5C17.5319 16.903 18.3301 16.6991 18.953 17.0423C19.0645 17.1043 19.1626 17.1798 19.247 17.265L22.2515 15.6026C22.216 15.4873 22.198 15.3678 22.1982 15.2476C22.1982 14.5577 22.78 14 23.4999 14C24.2197 14 24.8016 14.5577 24.8016 15.2476C24.8016 15.3717 24.7828 15.4914 24.7477 15.6042L27.7514 17.2666C27.8361 17.1806 27.9347 17.1049 28.0468 17.0423C28.6697 16.6991 29.4642 16.903 29.826 17.5C30.1841 18.097 29.9714 18.8586 29.3485 19.2053C29.2373 19.2665 29.1207 19.3103 29.0018 19.3376V22.6632C29.1193 22.6906 29.2347 22.734 29.3448 22.7947C29.9714 23.1414 30.1841 23.903 29.8223 24.5ZM18.6172 22.6646C18.6346 22.6687 18.6514 22.6731 18.6685 22.678L22.6007 16.1504C22.5879 16.1387 22.5756 16.1272 22.5634 16.1149L19.5537 17.7806C19.6472 18.0946 19.6133 18.4424 19.4306 18.7476C19.2472 19.0534 18.9485 19.2559 18.6172 19.3348V22.6646ZM19.2053 22.9737C19.2929 23.0537 19.3704 23.1469 19.4343 23.2524C19.4975 23.3578 19.5429 23.4685 19.5714 23.5813H27.4284C27.4569 23.4685 27.5022 23.3578 27.5655 23.2524C27.6275 23.149 27.7047 23.0546 27.7947 22.9723L23.8637 16.4461C23.7482 16.4783 23.6262 16.4953 23.4999 16.4953C23.3739 16.4953 23.2524 16.4783 23.1373 16.4466L19.2053 22.9737ZM28.3321 22.6775C28.349 22.6728 28.3655 22.6684 28.3826 22.6643V19.3348C28.0513 19.2559 27.7525 19.0534 27.5692 18.7476C27.3868 18.4432 27.3526 18.0959 27.4458 17.7825L24.435 16.1166C24.4236 16.1278 24.4119 16.1387 24.3999 16.1496L28.3321 22.6775ZM27.4538 24.2565C27.4447 24.2295 27.4367 24.2022 27.4298 24.1748H19.5697C19.5657 24.191 19.5611 24.2071 19.5563 24.2229L22.562 25.8864C22.7989 25.6509 23.1313 25.5047 23.4999 25.5047C23.8816 25.5047 24.2246 25.6616 24.4626 25.9119L27.4538 24.2565Z" fill="#E535AB"/>
</svg>
