<svg width="35" height="35" viewBox="0 0 35 35" fill="none" xmlns="http://www.w3.org/2000/svg">
<rect width="35" height="35" rx="5" fill="black" fill-opacity="0.3"/>
<path fill-rule="evenodd" clip-rule="evenodd" d="M13.9293 13.077H18.8692V15.586L18.9406 15.5862C19.6285 14.3633 21.3107 13.0771 23.819 13.0771C29.0353 13.077 30 16.2932 30 20.4771V28.9998L24.8483 28.9999V21.4448C24.8483 19.6438 24.8105 17.3254 22.1696 17.3254C19.4872 17.3254 19.0762 19.2859 19.0762 21.3137V29H13.9293V13.0771V13.077ZM10.3579 8.654C10.3579 10.1191 9.15785 11.3079 7.67915 11.3079C6.20045 11.3079 5 10.119 5 8.654C5 7.18893 6.20045 6 7.67915 6C9.15785 6 10.3579 7.18893 10.3579 8.654ZM5 13.077H10.3579V28.9999H5V13.077Z" fill="white"/>
</svg>
