<svg width="17" height="17" viewBox="0 0 17 17" fill="none" xmlns="http://www.w3.org/2000/svg">
<path d="M5.58572 16.6769C7.05969 16.6769 8.25713 15.5052 8.25713 14.06V11.4432H5.58572C4.11175 11.4432 2.91431 12.6149 2.91431 14.06C2.91431 15.5052 4.11175 16.6769 5.58572 16.6769Z" fill="#0ACF83"/>
<path d="M2.91431 8.8178C2.91431 7.37392 4.11175 6.20093 5.58572 6.20093H8.25713V11.4347H5.58572C4.11175 11.4347 2.91431 10.263 2.91431 8.8178Z" fill="#A259FF"/>
<path d="M2.91431 3.58831C2.91431 2.14443 4.11175 0.971436 5.58572 0.971436H8.25713V6.20518H5.58572C4.11175 6.20518 2.91431 5.03347 2.91431 3.58831Z" fill="#F24E1E"/>
<path d="M8.25708 0.971436H10.9285C12.4025 0.971436 13.5999 2.14443 13.5999 3.58831C13.5999 5.03347 12.4038 6.20518 10.9285 6.20518H8.25708V0.971436Z" fill="#FF7262"/>
<path d="M13.5999 8.8178C13.5999 10.263 12.4038 11.4347 10.9285 11.4347C9.45321 11.4347 8.25708 10.263 8.25708 8.8178C8.25708 7.37392 9.45321 6.20093 10.9285 6.20093C12.4038 6.20093 13.5999 7.37392 13.5999 8.8178Z" fill="#1ABCFE"/>
</svg>
