<svg width="35" height="35" viewBox="0 0 35 35" fill="none" xmlns="http://www.w3.org/2000/svg">
<rect width="35" height="35" rx="5" fill="#222222"/>
<rect x="5" y="5" width="25" height="25" rx="2" fill="white" fill-opacity="0.9"/>
<path d="M26.094 18.0678C26.094 18.0273 26.0829 17.9983 26.0603 17.9795C26.0351 17.9591 25.9916 17.9483 25.931 17.9483H25.844V18.1888H25.949C26.046 18.1888 26.0939 18.1483 26.0939 18.0678H26.094ZM26.2297 18.5693H26.1101L26.0338 18.4001C25.995 18.3152 25.9536 18.2728 25.9084 18.2728H25.844V18.5693H25.7454V17.8638H25.9429C26.0307 17.8638 26.0967 17.883 26.1418 17.9228C26.1803 17.9571 26.1994 18.0011 26.1994 18.0557C26.1994 18.1044 26.1838 18.1453 26.1523 18.1792C26.1216 18.2134 26.0774 18.2366 26.0211 18.2486V18.2516C26.0602 18.2609 26.0993 18.304 26.1373 18.3819L26.2297 18.5697V18.5693ZM26.4481 18.2235C26.4481 18.0847 26.4011 17.9675 26.3071 17.8746C26.2128 17.7817 26.0978 17.7351 25.9621 17.7351C25.8221 17.7351 25.7055 17.7817 25.6132 17.8754C25.5208 17.9695 25.4747 18.0859 25.4747 18.2235C25.4747 18.3643 25.5227 18.4818 25.6178 18.5755C25.7117 18.6691 25.8268 18.7154 25.962 18.7154C26.0967 18.7154 26.2116 18.6687 26.3064 18.5739C26.4011 18.4806 26.4482 18.3634 26.4482 18.2235H26.4481ZM26.5145 18.2204C26.5145 18.3762 26.4613 18.507 26.3543 18.6121C26.2473 18.7181 26.1162 18.7709 25.9594 18.7709C25.8014 18.7709 25.6703 18.7189 25.566 18.6167C25.4617 18.513 25.4099 18.3827 25.4099 18.2247C25.4099 18.0701 25.4629 17.9402 25.5687 17.8335C25.6745 17.727 25.8064 17.6739 25.964 17.6739C26.1185 17.6739 26.2481 17.7248 26.3531 17.8261C26.4609 17.9302 26.5145 18.0612 26.5145 18.2204ZM11.5187 20.1877H11.1786V18.2308C11.1786 18.0762 11.1887 17.8881 11.2067 17.6662H11.1992C11.1673 17.796 11.1382 17.89 11.1125 17.9483L10.1241 20.1877H9.95844L8.96806 17.9645C8.94022 17.9024 8.91097 17.8026 8.88144 17.6661H8.87412C8.88444 17.7829 8.89034 17.9722 8.89034 18.2347V20.1877H8.5625V17.2736H9.01109L9.90022 19.3055C9.96734 19.4586 10.0107 19.5751 10.0317 19.6544H10.0458C10.1038 19.4951 10.1497 19.3757 10.1846 19.297L11.0929 17.2736H11.5185V20.1876H11.5186L11.5187 20.1877ZM12.5647 20.1876H12.2342V18.1066H12.5647V20.1876ZM12.6219 17.3607C12.6219 17.4219 12.6003 17.4732 12.5578 17.5152C12.516 17.5573 12.4643 17.5784 12.4037 17.5784C12.3447 17.5784 12.2933 17.5581 12.2511 17.5176C12.2089 17.4767 12.1883 17.4247 12.1883 17.3607C12.1883 17.3005 12.2091 17.2492 12.2511 17.2077C12.2711 17.1876 12.2949 17.1717 12.3211 17.1611C12.3474 17.1505 12.3755 17.1454 12.4037 17.1459C12.4643 17.1459 12.516 17.166 12.5578 17.2077C12.6004 17.2492 12.6219 17.3005 12.6219 17.3607ZM14.6301 20.0912C14.4714 20.1892 14.2819 20.2377 14.063 20.2377C13.7663 20.2377 13.5274 20.1387 13.3449 19.9409C13.1677 19.749 13.0784 19.5011 13.0784 19.1973C13.0784 18.8565 13.1755 18.5805 13.3709 18.3708C13.5654 18.1607 13.8268 18.0558 14.1558 18.0558C14.3356 18.0558 14.4952 18.0913 14.6347 18.1614V18.5034C14.4802 18.3943 14.3169 18.3403 14.1416 18.3403C13.9307 18.3403 13.7593 18.4143 13.6263 18.562C13.4879 18.7131 13.4177 18.9151 13.4177 19.1672C13.4177 19.4093 13.4818 19.6009 13.6091 19.7424C13.7368 19.8831 13.9066 19.9536 14.1209 19.9536C14.3019 19.9536 14.4714 19.8939 14.63 19.7748V20.0912H14.6301ZM16.2109 18.4443C16.1526 18.3991 16.0686 18.3772 15.9578 18.3772C15.8233 18.3772 15.7101 18.4377 15.6185 18.5599C15.5146 18.6963 15.4629 18.8853 15.4629 19.1266V20.1875H15.1316V18.1065H15.4629V18.5356H15.4708C15.5196 18.3837 15.5947 18.2669 15.6951 18.184C15.789 18.1084 15.8953 18.0703 16.0122 18.0703C16.1004 18.0703 16.1659 18.0799 16.2108 18.0986V18.4443H16.2109ZM18.0571 19.1509C18.0571 18.8845 17.9973 18.681 17.8777 18.5414C17.7615 18.4072 17.5993 18.3401 17.3904 18.3401C17.1845 18.3401 17.0192 18.408 16.8958 18.5437C16.7651 18.6886 16.6998 18.8934 16.6998 19.159C16.6998 19.408 16.762 19.6034 16.8873 19.7429C17.012 19.8833 17.1798 19.9534 17.3904 19.9534C17.6082 19.9534 17.7749 19.8822 17.8891 19.7403C18.0012 19.6015 18.0571 19.4053 18.0571 19.1509ZM18.3968 19.1391C18.3968 19.4707 18.3037 19.7371 18.1181 19.9367C17.9318 20.1372 17.681 20.2374 17.3658 20.2374C17.0553 20.2374 16.808 20.1372 16.6267 19.9367C16.4491 19.7436 16.3598 19.4884 16.3598 19.1711C16.3598 18.8092 16.4607 18.5301 16.6631 18.3319C16.8502 18.1481 17.1005 18.0556 17.4142 18.0556C17.7228 18.0556 17.9639 18.1523 18.1377 18.3439C18.3098 18.5366 18.3968 18.8018 18.3968 19.1391ZM20.0397 19.6309C20.0397 19.8012 19.9764 19.9423 19.8494 20.0549C19.7111 20.1766 19.5209 20.2376 19.2817 20.2376C19.0858 20.2376 18.914 20.1963 18.7683 20.1123V19.7542C18.9305 19.8868 19.1096 19.9535 19.3063 19.9535C19.5685 19.9535 19.7 19.8564 19.7 19.6628C19.7 19.5815 19.6711 19.514 19.6129 19.462C19.5547 19.4088 19.4415 19.3452 19.2733 19.2707C19.0999 19.1944 18.9764 19.1162 18.9037 19.0348C18.8162 18.9384 18.7722 18.8132 18.7722 18.659C18.7722 18.4862 18.8408 18.3425 18.9765 18.228C19.1126 18.1131 19.2874 18.0556 19.5021 18.0556C19.6666 18.0556 19.8138 18.0881 19.9446 18.1532V18.4886C19.8081 18.3895 19.6521 18.3401 19.4749 18.3401C19.3652 18.3401 19.2771 18.3677 19.2115 18.4212C19.1452 18.4759 19.1118 18.5456 19.1118 18.6308C19.1118 18.723 19.1398 18.7947 19.1951 18.8459C19.2441 18.8934 19.3483 18.9512 19.5056 19.0186C19.6823 19.0931 19.81 19.1702 19.8878 19.2492C19.9887 19.3491 20.0397 19.4763 20.0397 19.6309ZM22.0642 19.1509C22.0642 18.8845 22.0044 18.681 21.8844 18.5414C21.7686 18.4072 21.6059 18.3401 21.3974 18.3401C21.1916 18.3401 21.0263 18.408 20.9021 18.5437C20.7718 18.6886 20.7069 18.8934 20.7069 19.159C20.7069 19.408 20.769 19.6034 20.8933 19.7429C21.0193 19.8833 21.1873 19.9534 21.3974 19.9534C21.6156 19.9534 21.782 19.8822 21.8962 19.7403C22.0081 19.6015 22.0642 19.4053 22.0642 19.1509ZM22.4046 19.1391C22.4046 19.4707 22.3107 19.7371 22.1248 19.9367C21.9391 20.1372 21.6884 20.2374 21.3733 20.2374C21.0623 20.2374 20.815 20.1372 20.6337 19.9367C20.4562 19.7436 20.3668 19.4884 20.3668 19.1711C20.3668 18.8092 20.4684 18.5301 20.6697 18.3319C20.8568 18.1481 21.1076 18.0556 21.4215 18.0556C21.7303 18.0556 21.9709 18.1523 22.1443 18.3439C22.3168 18.5366 22.4046 18.8018 22.4046 19.1391ZM23.8643 17.3996C23.7991 17.3633 23.7268 17.3448 23.6443 17.3448C23.4123 17.3448 23.2973 17.4917 23.2973 17.7859V18.1065H23.7823V18.3888H23.2973V20.1875H22.9656V18.3887H22.6137V18.1065H22.9656V17.7692C22.9656 17.5401 23.0354 17.3605 23.1773 17.2309C23.2988 17.1184 23.4476 17.0625 23.6243 17.0625C23.7268 17.0625 23.8064 17.0748 23.8643 17.0988V17.3995V17.3996ZM25.1718 20.1666C25.0936 20.2117 24.9893 20.234 24.8605 20.234C24.4993 20.234 24.3188 20.0293 24.3188 19.6199V18.3891H23.9638V18.1065H24.3188V17.5988C24.4245 17.5652 24.5346 17.5286 24.6508 17.4908V18.1065H25.1718V18.3891H24.6508V19.5633C24.6508 19.7028 24.6734 19.8027 24.7209 19.8605C24.7689 19.9202 24.8471 19.9496 24.9575 19.9496C25.0399 19.9496 25.1113 19.9273 25.1718 19.8825V20.1666Z" fill="black"/>
<path d="M7.25975 28.3019C7.25975 28.465 7.20191 28.606 7.085 28.7252C6.96837 28.8439 6.82691 28.9037 6.66088 28.9037C6.49869 28.9037 6.36069 28.8439 6.24763 28.7252C6.13447 28.606 6.07812 28.465 6.07812 28.3019C6.07812 28.1341 6.13447 27.9927 6.24763 27.8756C6.36069 27.7579 6.49869 27.6998 6.66088 27.6998C6.82691 27.6998 6.96837 27.7588 7.085 27.8779C7.20191 27.997 7.25975 28.1385 7.25975 28.3019ZM14.677 28.7811H13.5966L9.67475 22.6914C9.5804 22.5396 9.50079 22.379 9.437 22.2118H9.40475C9.43269 22.3749 9.44694 22.7249 9.44694 23.2611V28.7811H8.55631V21.1409H9.71225L13.5168 27.1347C13.6683 27.3725 13.7718 27.5428 13.8243 27.6455H13.8455C13.8102 27.4257 13.7918 27.051 13.7918 26.5221V21.1409H14.6771V28.7811H14.677ZM20.3868 28.7811H16.3595V21.1409H20.212V21.9505H17.2495V24.492H19.9947V25.302H17.2494V27.9712H20.3867V28.7811H20.3868ZM26.4955 21.9506H24.3067V28.7812H23.4163V21.9506H21.2234V21.1406H26.4956V21.9506H26.4955Z" fill="black"/>
<path d="M14.3751 7.95292C15.2342 10.5947 15.5597 15.3074 18.0722 15.3074C18.2635 15.3074 18.4568 15.2886 18.6507 15.2515C16.3668 14.716 16.0961 10.0546 14.7025 7.64062C14.5913 7.74257 14.4821 7.84669 14.375 7.95292" fill="url(#paint0_linear_81_911)"/>
<path d="M14.7031 7.64193C16.0968 10.0559 16.3675 14.7174 18.6514 15.2528C18.8308 15.2197 19.0107 15.1695 19.1908 15.1063C17.1408 14.0964 16.5742 9.56978 14.9914 7.39062C14.8937 7.47255 14.7976 7.55636 14.7031 7.64202" fill="url(#paint1_linear_81_911)"/>
<path d="M16.7025 6.20314C16.5116 6.20314 16.3179 6.22199 16.1236 6.25913C15.6152 6.35546 15.0987 6.57557 14.5781 6.9086C14.7203 7.04971 14.8556 7.21118 14.9829 7.38745C15.5124 6.94564 16.0385 6.61921 16.5626 6.42296C16.7539 6.35099 16.9511 6.29589 17.1518 6.25828C17.0049 6.22112 16.854 6.2026 16.7025 6.20314Z" fill="#14559A"/>
<path d="M20.7871 14.1683C21.0055 13.9928 21.2158 13.8075 21.4175 13.6128C20.5445 10.9833 20.232 6.20312 17.7019 6.20312C17.5209 6.20312 17.3384 6.22009 17.1562 6.25403C19.4609 6.83035 19.7561 11.8719 20.7872 14.1683" fill="url(#paint2_linear_81_911)"/>
<path d="M17.1525 6.25819C17.0056 6.22108 16.8546 6.20258 16.7031 6.20314L17.6981 6.20681C17.5172 6.20681 17.3346 6.22378 17.1525 6.25809" fill="#3092C4"/>
<path d="M20.7438 14.7318C20.6448 14.637 20.5509 14.5329 20.4585 14.4219C20.0328 14.7248 19.6089 14.9546 19.1875 15.1041C19.3379 15.1784 19.4972 15.233 19.6614 15.2665C19.7943 15.2935 19.9295 15.307 20.0651 15.3066C20.5379 15.3066 20.9117 15.2503 21.2299 15.0969C21.0546 15.0017 20.894 14.8782 20.7438 14.7318Z" fill="#1969BC"/>
<path d="M16.5625 6.41534C18.6267 7.50086 18.8061 12.4168 20.4532 14.4129C20.5653 14.3333 20.675 14.2504 20.7823 14.1643C19.7512 11.8678 19.4564 6.82594 17.1522 6.25C16.9513 6.28802 16.754 6.34334 16.5625 6.41534Z" fill="url(#paint3_linear_81_911)"/>
<path d="M14.9844 7.38608C16.5671 9.56524 17.1338 14.0918 19.1838 15.1017C19.6052 14.9522 20.0292 14.7224 20.4548 14.4195C18.8077 12.4234 18.6282 7.5074 16.5641 6.42188C16.04 6.61775 15.5139 6.94418 14.9844 7.38599" fill="url(#paint4_linear_81_911)"/>
<path d="M13.3547 7.89183C13.1067 8.4558 12.8532 9.19708 12.5469 10.1647C13.1562 9.30162 13.7635 8.55789 14.3674 7.95555C14.2842 7.69841 14.1949 7.46134 14.0986 7.25C13.8394 7.45034 13.5911 7.66463 13.3548 7.89193" fill="url(#paint5_linear_81_911)"/>
<path d="M14.3291 7.07812C14.255 7.13116 14.1817 7.1854 14.1094 7.24082C14.2057 7.45206 14.2945 7.68913 14.3778 7.94628C14.4851 7.84025 14.5942 7.73613 14.7052 7.63399C14.5883 7.43199 14.464 7.24544 14.3291 7.07812Z" fill="#2B74B1"/>
<path d="M14.588 6.90634C14.5001 6.9625 14.4135 7.02058 14.3281 7.08054C14.4631 7.24786 14.5872 7.4344 14.7046 7.63678C14.7989 7.5508 14.895 7.46688 14.9929 7.3851C14.8657 7.20893 14.7304 7.04736 14.5881 6.90625" fill="#125A9E"/>
<path d="M28.6659 6.00104C27.4984 10.528 25.06 14.164 23.0156 15.0807H23.0118C22.9746 15.0976 22.9378 15.1131 22.9014 15.1281C22.8963 15.1312 22.8917 15.1316 22.8879 15.1334C22.8772 15.1377 22.8673 15.1411 22.8565 15.1454C22.8514 15.1484 22.8469 15.1495 22.8423 15.1513C22.8251 15.1575 22.8082 15.1627 22.7913 15.1695C22.784 15.1726 22.7772 15.1745 22.7703 15.1769C22.762 15.1801 22.7535 15.1829 22.7449 15.1852C22.7372 15.1882 22.7292 15.1905 22.7204 15.1939C22.7131 15.1969 22.7054 15.1982 22.6985 15.2012C22.6835 15.2056 22.6698 15.2092 22.6548 15.2144C22.6487 15.2144 22.6429 15.2178 22.6365 15.2195C22.6272 15.2225 22.6168 15.2247 22.6068 15.2275C22.6 15.2305 22.5943 15.2316 22.587 15.2331C22.5767 15.2361 22.5651 15.2389 22.5547 15.2414L22.5156 15.2501C22.6093 15.2848 22.7083 15.3023 22.8081 15.3017C24.7467 15.3017 26.7012 11.8087 29.9353 6H28.6654L28.6659 6.00104Z" fill="url(#paint6_linear_81_911)"/>
<path d="M12.1326 6.38873C12.1338 6.38873 12.1354 6.38571 12.136 6.38571C12.1376 6.38571 12.14 6.38571 12.1407 6.38269H12.1432C12.1538 6.37892 12.1638 6.37468 12.1746 6.37063C12.1774 6.37063 12.1788 6.37063 12.1807 6.36761C12.1835 6.36761 12.1861 6.3645 12.1888 6.36412C12.2003 6.36045 12.2118 6.35611 12.2226 6.35215H12.2243C12.25 6.34442 12.2738 6.33481 12.2987 6.32585C12.3022 6.32585 12.3056 6.32284 12.3098 6.32284C12.3202 6.31944 12.3309 6.31577 12.3417 6.31332C12.3467 6.31021 12.3517 6.31021 12.3562 6.3086C12.3673 6.30531 12.3781 6.30153 12.3884 6.29908C12.3931 6.29908 12.3972 6.29597 12.4007 6.29569C12.4363 6.28579 12.4717 6.27656 12.5073 6.26798C12.5122 6.26798 12.5165 6.26487 12.5218 6.26458C12.5321 6.26157 12.5418 6.25987 12.5529 6.25836C12.5575 6.25535 12.5629 6.25535 12.5682 6.25374C12.5785 6.25073 12.5886 6.25035 12.5997 6.2479H12.6069C12.6285 6.24347 12.6503 6.23989 12.6718 6.23583H12.6848C12.6952 6.23282 12.7043 6.23244 12.7148 6.23056C12.7204 6.23056 12.7262 6.22754 12.7316 6.22754C12.7412 6.22754 12.7508 6.22443 12.7603 6.2232C12.7654 6.2232 12.7702 6.2232 12.7761 6.22009C12.7987 6.21708 12.822 6.21585 12.8458 6.21397C12.7773 6.20704 12.7084 6.20342 12.6396 6.20312C10.4565 6.20312 7.44862 10.2759 6.09375 15.5503H6.35484C6.78844 14.7728 7.17797 14.0373 7.53422 13.3468C8.48306 9.6109 10.4158 7.06317 12.1327 6.38816" fill="url(#paint7_linear_81_911)"/>
<path d="M13.3594 7.89242C13.5956 7.66512 13.8439 7.45083 14.1031 7.2505C14.0504 7.13257 13.9913 7.01765 13.926 6.90625C13.7263 7.14992 13.5438 7.47145 13.3594 7.89242Z" fill="#0D82CA"/>
<path d="M13.5433 6.42048C13.6858 6.54076 13.8136 6.7061 13.9305 6.90433C13.9673 6.8588 14.0045 6.81676 14.0432 6.77745C13.881 6.62522 13.7058 6.50032 13.5156 6.40625C13.5233 6.41049 13.531 6.41398 13.539 6.41737C13.539 6.41737 13.542 6.42039 13.5433 6.42039" fill="#0D82CA"/>
<path d="M7.53125 13.3493C9.52194 9.49242 10.4651 7.0514 12.1298 6.39062C10.4133 7.06611 8.48019 9.61383 7.53134 13.3493" fill="url(#paint8_linear_81_911)"/>
<path d="M14.0346 6.78125C13.9958 6.82093 13.9591 6.8626 13.9219 6.90813C13.9872 7.01954 14.0464 7.13442 14.0993 7.25228C14.1717 7.19689 14.245 7.14268 14.3191 7.08968C14.2315 6.98031 14.1365 6.87725 14.0346 6.78125Z" fill="#127BCA"/>
<path d="M8.44081 15.5289C8.42853 15.532 8.41625 15.532 8.40472 15.5333H8.39787C8.38747 15.5333 8.37669 15.5364 8.36712 15.5364H8.36216C8.33722 15.5394 8.31266 15.5394 8.28894 15.5413H8.28125C10.296 15.4846 11.2169 14.4704 11.6741 12.9993C12.0214 11.8841 12.3066 10.9446 12.5566 10.1562C11.7127 11.3506 10.865 12.7742 10.0127 14.369C9.60172 15.1376 8.97678 15.4587 8.44072 15.5275" fill="url(#paint9_linear_81_911)"/>
<path d="M8.43759 15.5347C8.97356 15.4661 9.5985 15.1454 10.0095 14.3762C10.8618 12.7819 11.7099 11.3579 12.5529 10.1636C12.8597 9.1955 13.1128 8.4546 13.3612 7.89062C11.6808 9.49893 9.99375 12.1732 8.4375 15.534" fill="url(#paint10_linear_81_911)"/>
<path d="M7.53875 13.3438C7.1825 14.0341 6.79297 14.7697 6.35938 15.5472H7.11884C7.21476 14.8051 7.35498 14.0694 7.53875 13.3441" fill="#05A1E6"/>
<path d="M12.7692 6.22111C12.763 6.22111 12.7584 6.22412 12.753 6.22412C12.7438 6.22723 12.7343 6.22723 12.7246 6.22818C12.719 6.22818 12.7136 6.22818 12.7077 6.23129C12.6974 6.2343 12.6879 6.23459 12.6778 6.23657C12.6732 6.23657 12.6687 6.23657 12.6648 6.23958C12.643 6.24326 12.6215 6.24731 12.6001 6.25099H12.5928C12.5817 6.2541 12.5716 6.2557 12.5613 6.25721C12.556 6.26023 12.5506 6.26023 12.5456 6.26145C12.5352 6.26456 12.5249 6.26579 12.5149 6.26767C12.5096 6.27069 12.5053 6.27069 12.5004 6.27097C12.4647 6.27964 12.4294 6.28888 12.3938 6.29878C12.39 6.29878 12.3861 6.3018 12.3815 6.30245C12.3708 6.30547 12.3604 6.30858 12.3492 6.31198C12.3447 6.31509 12.3393 6.31509 12.3347 6.31631C12.324 6.31928 12.3134 6.32246 12.3028 6.32583C12.2987 6.32583 12.2952 6.32885 12.2914 6.32885C12.2668 6.33809 12.2427 6.34742 12.2173 6.35505C12.2067 6.35845 12.1951 6.36278 12.1836 6.36684C12.179 6.36985 12.1749 6.37061 12.1695 6.37268C12.1587 6.37607 12.148 6.38041 12.138 6.38437C12.1343 6.38748 12.1303 6.38776 12.1277 6.38936C10.463 7.05014 9.51978 9.49107 7.52919 13.348C7.34525 14.0732 7.20506 14.809 7.10938 15.5512H7.21597C7.51616 15.5512 7.60091 15.5481 7.94628 15.5481H8.28106C8.30478 15.5451 8.32934 15.5451 8.35419 15.5431H8.35887C8.36919 15.5431 8.3795 15.5401 8.38953 15.5401H8.39684C8.40791 15.5401 8.42056 15.537 8.43284 15.5357C9.98909 12.1749 11.676 9.50068 13.3566 7.89238C13.5413 7.4715 13.7234 7.14997 13.9228 6.90668C13.8062 6.70854 13.6785 6.54282 13.5359 6.42255C13.5359 6.42255 13.5321 6.42255 13.5318 6.41943C13.5237 6.41614 13.5161 6.41208 13.508 6.40812C13.4999 6.40369 13.493 6.4003 13.4846 6.39606C13.4767 6.39274 13.4691 6.38903 13.4616 6.38493C13.4517 6.38182 13.4436 6.37749 13.4348 6.37353C13.4275 6.37042 13.421 6.36731 13.4137 6.36429C13.3988 6.3585 13.3841 6.3523 13.3696 6.34572C13.3631 6.3427 13.357 6.34101 13.3509 6.33865C13.3397 6.33457 13.3287 6.33017 13.3178 6.32545C13.3124 6.32234 13.3063 6.32168 13.3002 6.31952C13.2845 6.31424 13.2691 6.30868 13.2546 6.30377H13.2507C13.2331 6.29793 13.2159 6.29359 13.1979 6.28869C13.1937 6.28558 13.1902 6.28558 13.186 6.28492C13.1702 6.28068 13.1564 6.27644 13.1415 6.27239C13.1378 6.27239 13.1342 6.26927 13.1312 6.26927C13.0946 6.25983 13.0576 6.25172 13.0203 6.24495C13.0166 6.24495 13.0127 6.24184 13.0089 6.24184C12.993 6.23867 12.977 6.2361 12.961 6.23411C12.957 6.2311 12.9548 6.2311 12.9514 6.2311C12.9325 6.22819 12.9136 6.22571 12.8946 6.22365H12.8847C12.8693 6.22064 12.8551 6.22035 12.841 6.21875C12.8168 6.22177 12.7938 6.22309 12.7711 6.22525" fill="url(#paint11_linear_81_911)"/>
<path d="M24.1037 8.50878C23.7208 9.74239 23.4105 10.76 23.1406 11.5974C24.1916 10.1433 25.2267 8.31403 26.2125 6.20312C25.0627 6.56622 24.4492 7.39743 24.1037 8.50878Z" fill="url(#paint12_linear_81_911)"/>
<path d="M23.1759 15.0025C23.1223 15.03 23.0686 15.0562 23.0156 15.0796C25.06 14.1629 27.4985 10.5269 28.6659 6H28.4293C25.7471 10.8176 24.8844 14.0426 23.1759 15.0025Z" fill="url(#paint13_linear_81_911)"/>
<path d="M21.8428 14.5969C22.2876 14.051 22.6499 13.1231 23.1445 11.5938C22.574 12.3818 21.9997 13.0591 21.4249 13.6115C21.4249 13.6145 21.4249 13.6145 21.4219 13.6164C21.5472 13.9942 21.6848 14.3276 21.8417 14.5968" fill="#079AE1"/>
<path d="M21.8432 14.5938C21.6918 14.7794 21.5315 14.921 21.3532 15.0258C21.3141 15.0487 21.2746 15.0702 21.2344 15.0899C21.4278 15.1953 21.6395 15.2624 21.8581 15.2876C21.8918 15.291 21.9252 15.2941 21.9601 15.2966H21.9663C21.9819 15.2966 21.9984 15.2966 22.0153 15.2996H22.1817C22.1878 15.2996 22.1942 15.2996 22.2004 15.2966C22.2123 15.2966 22.2248 15.2966 22.2371 15.2935H22.2553C22.2679 15.2935 22.2817 15.2904 22.2952 15.2891H22.2982C22.3022 15.2891 22.3065 15.2861 22.3104 15.2861C22.3245 15.283 22.3393 15.2818 22.353 15.2796H22.3657C22.3812 15.2766 22.3974 15.2746 22.4135 15.2716H22.4213C22.4534 15.2654 22.4848 15.2593 22.5167 15.2512C22.2529 15.1541 22.032 14.9251 21.8419 14.5989" fill="#1969BC"/>
<path d="M18.0781 15.3118C18.2695 15.3118 18.4627 15.2929 18.6567 15.2555C18.8362 15.2228 19.016 15.1725 19.1962 15.1094C19.3465 15.1836 19.5056 15.2381 19.6696 15.2717C19.8027 15.2987 19.9381 15.3121 20.0738 15.3118H18.0781Z" fill="#1E5CB3"/>
<path d="M20.0638 15.3035C20.5362 15.3035 20.9104 15.2472 21.2282 15.0938C21.4217 15.1991 21.6334 15.2663 21.852 15.2916C21.8857 15.2949 21.9191 15.298 21.954 15.3005H21.9602C21.9758 15.3005 21.9923 15.3005 22.0092 15.3036H22.0666H20.0625H20.0638V15.3035Z" fill="#1E5CB3"/>
<path d="M22.0781 15.301H22.1874C22.1939 15.301 22.2 15.301 22.2062 15.298C22.2181 15.298 22.2307 15.298 22.2434 15.2949H22.2615C22.2741 15.2949 22.2878 15.2919 22.301 15.2906H22.3043C22.3084 15.2906 22.3123 15.2876 22.3163 15.2876C22.3304 15.2845 22.3451 15.2833 22.3588 15.281C22.3635 15.281 22.3672 15.281 22.372 15.278C22.3877 15.275 22.4039 15.2734 22.42 15.2704H22.4277C22.4599 15.2641 22.4913 15.258 22.5231 15.25C22.6167 15.2847 22.7158 15.3022 22.8156 15.3017L22.0787 15.3047L22.0781 15.301Z" fill="#1D60B5"/>
<path d="M21.4127 13.6125V13.6094C21.2112 13.8041 21.0008 13.9894 20.7825 14.1649C20.6751 14.2509 20.5652 14.3338 20.4531 14.4135C20.5455 14.5246 20.6394 14.6286 20.7384 14.7236C20.8887 14.8699 21.0493 14.9933 21.2245 15.0885C21.2644 15.0687 21.3042 15.0473 21.343 15.0245C21.5216 14.9197 21.6819 14.7782 21.8333 14.5924C21.6766 14.3233 21.5389 13.9899 21.4135 13.6121" fill="#175FAB"/>
<path d="M27.6843 6H26.4936C26.4292 6.00311 26.3667 6.00528 26.305 6.00924C26.2759 6.07211 26.246 6.13498 26.2172 6.19823C25.2315 8.30914 24.1963 10.1384 23.1454 11.5925C22.6511 13.1217 22.2885 14.0496 21.8438 14.5955C22.0339 14.9216 22.2551 15.151 22.5181 15.2482C22.5258 15.2451 22.532 15.2451 22.5388 15.2435H22.5431C22.5477 15.2435 22.5527 15.2404 22.5577 15.2404C22.5683 15.2373 22.5799 15.2354 22.5907 15.2321C22.5975 15.229 22.6032 15.2287 22.6102 15.2265C22.6202 15.2235 22.6305 15.2213 22.6397 15.2189C22.6459 15.2157 22.652 15.2148 22.6581 15.2136C22.6734 15.2086 22.6872 15.2049 22.7018 15.2003C22.7087 15.1973 22.716 15.1946 22.7237 15.1928C22.7321 15.1898 22.7406 15.1877 22.7482 15.184C22.7571 15.1809 22.7659 15.1793 22.7736 15.176C22.7804 15.1729 22.7876 15.171 22.7942 15.1682C22.8114 15.162 22.8283 15.1568 22.8456 15.15C22.8503 15.15 22.8548 15.1457 22.8598 15.1448C22.8701 15.1404 22.8809 15.137 22.8912 15.1324C22.895 15.1293 22.8997 15.129 22.9046 15.1274C22.9407 15.1123 22.9778 15.0969 23.0151 15.08H23.0189C23.0729 15.0558 23.1263 15.0301 23.1788 15.0029C24.8876 14.043 25.7504 10.8179 28.4326 6.00038H27.6834L27.6844 6H27.6843Z" fill="url(#paint14_linear_81_911)"/>
<path d="M12.8438 6.20567C12.848 6.20567 12.8518 6.20567 12.8559 6.20869C12.8663 6.20869 12.8767 6.20869 12.8871 6.21208H12.8974C12.9162 6.2151 12.935 6.21679 12.9542 6.21953C12.9577 6.21953 12.9607 6.21953 12.9637 6.22254C12.9795 6.22556 12.9956 6.2282 13.0117 6.23056C13.0151 6.23056 13.0197 6.23367 13.0236 6.23367C13.0604 6.24102 13.098 6.24875 13.134 6.25827C13.1374 6.25827 13.1409 6.26138 13.1439 6.26138C13.1593 6.26506 13.1731 6.26967 13.1885 6.27401C13.1932 6.27401 13.1964 6.27703 13.2007 6.27778C13.2187 6.2824 13.2356 6.28702 13.2532 6.29286C13.254 6.29286 13.255 6.29286 13.2571 6.29588C13.2721 6.3005 13.2874 6.30634 13.303 6.31162C13.3093 6.31464 13.315 6.31596 13.3207 6.31747C13.3315 6.32218 13.3434 6.3267 13.3537 6.33104C13.3598 6.33104 13.3659 6.33537 13.3725 6.33764C13.3867 6.34405 13.4016 6.34989 13.4162 6.35602C13.4239 6.35913 13.4303 6.36262 13.4377 6.36535C13.4462 6.36969 13.4549 6.37365 13.4641 6.37666C13.4718 6.38043 13.4802 6.38439 13.4875 6.38778C13.4956 6.39222 13.5032 6.39551 13.511 6.39985C13.7011 6.49392 13.8763 6.6192 14.0385 6.77115C14.0966 6.70966 14.1591 6.65257 14.2255 6.60035C13.8709 6.34735 13.4692 6.20312 13.0056 6.20312C12.9518 6.20312 12.8982 6.20624 12.8438 6.21029" fill="#7DCBEC"/>
<path d="M14.0469 6.78027C14.1488 6.87627 14.2438 6.97933 14.3314 7.0887C14.4167 7.02853 14.5033 6.97039 14.5913 6.91431C14.4809 6.80259 14.3613 6.70057 14.2336 6.60938C14.1672 6.6615 14.1048 6.7186 14.0469 6.78018" fill="#5EC5ED"/>
<path d="M12.847 6.21913C12.9013 6.21451 12.9551 6.21253 13.0088 6.21253C13.4723 6.21253 13.8741 6.35675 14.2287 6.60938C14.603 6.31245 15.0553 6.20876 15.6837 6.20876H12.6406C12.7109 6.20876 12.7795 6.213 12.847 6.21913Z" fill="url(#paint15_linear_81_911)"/>
<path d="M15.6894 6.20079C15.061 6.20079 14.6086 6.30448 14.2344 6.60141C14.3619 6.69267 14.4814 6.79465 14.5918 6.90625C15.1127 6.57322 15.6288 6.35265 16.1377 6.25631C16.3284 6.21985 16.522 6.20126 16.7161 6.20079H15.6894Z" fill="url(#paint16_linear_81_911)"/>
<path d="M23.1411 11.5995C23.4113 10.7615 23.7208 9.74417 24.1045 8.51018C24.4505 7.39836 25.0627 6.56725 26.2125 6.20453C26.2429 6.14241 26.2716 6.0784 26.3011 6.01562C24.4267 6.12855 23.5506 7.08729 23.1097 8.50707C22.3387 10.9858 21.8716 12.5926 21.4219 13.6165C21.9963 13.0645 22.5706 12.3867 23.1411 11.5995Z" fill="url(#paint17_linear_81_911)"/>
<path d="M25.8873 14.6416H25.6749V15.3055H25.5883V14.6416H25.375V14.5626H25.8873V14.6416H25.8873ZM26.7571 15.3053H26.6708V14.8065C26.6708 14.7671 26.6738 14.719 26.6778 14.6622C26.6689 14.6962 26.6616 14.7197 26.6549 14.7348L26.4033 15.3053H26.3612L26.109 14.7391C26.1015 14.7233 26.0942 14.6978 26.0862 14.6623H26.0832C26.0862 14.6922 26.0872 14.7406 26.0872 14.8077V15.3054H26.0043V14.5625H26.1186L26.3452 15.0809C26.3624 15.1199 26.3732 15.1499 26.3786 15.17H26.3819C26.3969 15.1291 26.4093 15.0987 26.4175 15.0786L26.6488 14.5625H26.7576V15.3053H26.7571Z" fill="black"/>
<defs>
<linearGradient id="paint0_linear_81_911" x1="16.5127" y1="6.14437" x2="16.5127" y2="17.5787" gradientUnits="userSpaceOnUse">
<stop stop-color="#0994DC"/>
<stop offset="0.35001" stop-color="#66CEF5"/>
<stop offset="0.84616" stop-color="#127BCA"/>
<stop offset="1" stop-color="#127BCA"/>
</linearGradient>
<linearGradient id="paint1_linear_81_911" x1="16.947" y1="5.85625" x2="16.947" y2="17.5818" gradientUnits="userSpaceOnUse">
<stop stop-color="#0E76BC"/>
<stop offset="0.36" stop-color="#36AEE8"/>
<stop offset="0.84616" stop-color="#00ADEF"/>
<stop offset="1" stop-color="#00ADEF"/>
</linearGradient>
<linearGradient id="paint2_linear_81_911" x1="19.2868" y1="15.0382" x2="19.2868" y2="5.70817" gradientUnits="userSpaceOnUse">
<stop stop-color="#1C63B7"/>
<stop offset="0.5" stop-color="#33BDF2"/>
<stop offset="1" stop-color="#33BDF2" stop-opacity="0.42"/>
</linearGradient>
<linearGradient id="paint3_linear_81_911" x1="18.6724" y1="4.657" x2="18.6724" y2="16.8314" gradientUnits="userSpaceOnUse">
<stop stop-color="#166AB8"/>
<stop offset="0.39999" stop-color="#36AEE8"/>
<stop offset="0.84616" stop-color="#0798DD"/>
<stop offset="1" stop-color="#0798DD"/>
</linearGradient>
<linearGradient id="paint4_linear_81_911" x1="17.7195" y1="4.72748" x2="17.7195" y2="17.6733" gradientUnits="userSpaceOnUse">
<stop stop-color="#124379"/>
<stop offset="0.39" stop-color="#1487CB"/>
<stop offset="0.78023" stop-color="#165197"/>
<stop offset="1" stop-color="#165197"/>
</linearGradient>
<linearGradient id="paint5_linear_81_911" x1="12.5469" y1="8.70737" x2="14.3674" y2="8.70737" gradientUnits="userSpaceOnUse">
<stop stop-color="#33BDF2" stop-opacity="0.698"/>
<stop offset="1" stop-color="#1DACD8"/>
</linearGradient>
<linearGradient id="paint6_linear_81_911" x1="26.2262" y1="14.8074" x2="26.2262" y2="5.71862" gradientUnits="userSpaceOnUse">
<stop stop-color="#136AB4"/>
<stop offset="0.6" stop-color="#59CAF5" stop-opacity="0.549"/>
<stop offset="1" stop-color="#59CAF5" stop-opacity="0.235"/>
</linearGradient>
<linearGradient id="paint7_linear_81_911" x1="6.09368" y1="10.8767" x2="12.8457" y2="10.8767" gradientUnits="userSpaceOnUse">
<stop stop-color="#05A1E6" stop-opacity="0.247"/>
<stop offset="1" stop-color="#05A1E6"/>
</linearGradient>
<linearGradient id="paint8_linear_81_911" x1="9.83042" y1="15.0413" x2="9.83042" y2="5.73504" gradientUnits="userSpaceOnUse">
<stop stop-color="#318ED5"/>
<stop offset="1" stop-color="#38A7E4"/>
</linearGradient>
<linearGradient id="paint9_linear_81_911" x1="10.4189" y1="15.0674" x2="10.4189" y2="6.02137" gradientUnits="userSpaceOnUse">
<stop stop-color="#05A1E6"/>
<stop offset="1" stop-color="#05A1E6" stop-opacity="0.549"/>
</linearGradient>
<linearGradient id="paint10_linear_81_911" x1="10.8994" y1="15.5355" x2="10.8994" y2="7.89139" gradientUnits="userSpaceOnUse">
<stop stop-color="#1959A6"/>
<stop offset="0.5" stop-color="#05A1E6"/>
<stop offset="0.91759" stop-color="#7EC5EA"/>
<stop offset="1" stop-color="#7EC5EA"/>
</linearGradient>
<linearGradient id="paint11_linear_81_911" x1="11.1841" y1="15.0443" x2="8.58155" y2="7.13387" gradientUnits="userSpaceOnUse">
<stop stop-color="#165096"/>
<stop offset="1" stop-color="#0D82CA"/>
</linearGradient>
<linearGradient id="paint12_linear_81_911" x1="24.6764" y1="10.3566" x2="24.6764" y2="6.02517" gradientUnits="userSpaceOnUse">
<stop stop-color="#05A1E6"/>
<stop offset="0.87363" stop-color="#0495D6"/>
<stop offset="1" stop-color="#0495D6"/>
</linearGradient>
<linearGradient id="paint13_linear_81_911" x1="26.7032" y1="5.6222" x2="22.6518" y2="14.5688" gradientUnits="userSpaceOnUse">
<stop stop-color="#38A7E4" stop-opacity="0.329"/>
<stop offset="0.96153" stop-color="#0E88D3"/>
<stop offset="1" stop-color="#0E88D3"/>
</linearGradient>
<linearGradient id="paint14_linear_81_911" x1="25.1393" y1="5.97263" x2="25.1393" y2="15.4222" gradientUnits="userSpaceOnUse">
<stop stop-color="#168CD4"/>
<stop offset="0.5" stop-color="#1C87CC"/>
<stop offset="1" stop-color="#154B8D"/>
</linearGradient>
<linearGradient id="paint15_linear_81_911" x1="13.148" y1="5.78585" x2="13.1892" y2="6.77708" gradientUnits="userSpaceOnUse">
<stop stop-color="#97D6EE"/>
<stop offset="0.70329" stop-color="#55C1EA"/>
<stop offset="1" stop-color="#55C1EA"/>
</linearGradient>
<linearGradient id="paint16_linear_81_911" x1="14.4054" y1="6.86181" x2="14.5914" y2="5.81237" gradientUnits="userSpaceOnUse">
<stop stop-color="#7ACCEC"/>
<stop offset="1" stop-color="#3FB7ED"/>
</linearGradient>
<linearGradient id="paint17_linear_81_911" x1="23.8613" y1="6.49927" x2="23.8613" y2="15.7417" gradientUnits="userSpaceOnUse">
<stop stop-color="#1DA7E7"/>
<stop offset="1" stop-color="#37ABE7" stop-opacity="0"/>
</linearGradient>
</defs>
</svg>
