<svg width="35" height="35" viewBox="0 0 35 35" fill="none" xmlns="http://www.w3.org/2000/svg">
<rect width="35" height="35" rx="5" fill="#222222"/>
<rect x="5" y="5" width="25" height="25" rx="2" fill="url(#paint0_linear_81_969)" fill-opacity="0.9"/>
<g clip-path="url(#clip0_81_969)">
<path d="M21.5935 14.0498L19.0532 14.8971L16.8435 15.8938L16.2252 16.0607C16.0681 16.2138 15.9029 16.3687 15.7241 16.5255C15.5285 16.698 15.3461 16.8553 15.2058 16.969C15.0234 17.1226 14.855 17.2929 14.7029 17.4778C14.5282 17.7016 14.3902 17.9403 14.3304 18.1216C14.2249 18.4509 14.2765 18.7843 14.4802 19.0928C14.7414 19.485 15.2615 19.8855 15.8685 20.1565C16.2654 20.3254 16.6739 20.4645 17.0906 20.5728C17.7415 20.7411 19.0007 20.9238 19.6942 20.9511C19.806 20.9577 19.9182 20.9577 20.03 20.9511C20.0454 20.9414 20.1527 20.7314 20.2776 20.4706C20.704 19.5821 21.0109 18.7482 21.1779 18.036C21.278 17.6045 21.3567 17.0301 21.4083 16.3493C21.4219 16.1588 21.4278 15.5215 21.416 15.3055C21.4031 14.9971 21.371 14.6898 21.3201 14.3856C21.3133 14.3594 21.3113 14.3321 21.3142 14.3051C21.3219 14.2991 21.345 14.2912 21.6582 14.1992L21.5948 14.0461L21.5935 14.0498ZM21.0136 14.3971C21.0367 14.3971 21.0978 14.9984 21.1132 15.3799C21.119 15.4241 21.119 15.4689 21.1132 15.5131C21.0978 15.5131 20.7887 15.3281 20.57 15.1857C20.3777 15.0622 20.0133 14.8157 19.9554 14.7694C19.9363 14.7556 19.9382 14.7537 20.0957 14.6987C20.3587 14.6048 20.9924 14.3971 21.0136 14.3971ZM19.7195 14.8328C19.7367 14.8328 19.7811 14.8582 19.8866 14.9253C20.2822 15.1783 20.8194 15.4845 21.0498 15.5862C21.1209 15.6177 21.1286 15.6061 20.9657 15.7199C20.548 16.0009 20.1066 16.2431 19.6467 16.4437C19.5525 16.4867 19.4738 16.52 19.4719 16.52C19.4756 16.4833 19.4834 16.4471 19.495 16.4122C19.6176 15.9626 19.6866 15.4996 19.7005 15.0331C19.7005 14.837 19.7005 14.837 19.7195 14.831C19.7159 14.8333 19.7195 14.8333 19.7195 14.8333V14.8328ZM19.4525 14.9373C19.4642 14.9494 19.4566 15.3887 19.4412 15.5085C19.4068 15.7977 19.3478 16.0832 19.2646 16.3618C19.2522 16.4089 19.237 16.4552 19.2194 16.5005C19.2117 16.5103 18.9478 16.2471 18.8622 16.1454C18.7243 15.9852 18.6058 15.8086 18.5092 15.6195C18.4658 15.5339 18.4298 15.4446 18.4014 15.3526C18.4322 15.3314 19.4425 14.9309 19.4516 14.9364L19.4525 14.9373ZM18.1969 15.4414C18.1979 15.4413 18.1991 15.4414 18.2001 15.4418C18.2011 15.4422 18.202 15.4429 18.2027 15.4438C18.2148 15.4661 18.2246 15.4896 18.2317 15.5141C18.313 15.7211 18.4194 15.9169 18.5486 16.0968C18.6799 16.2745 18.8285 16.4381 18.9921 16.5852C19.0374 16.6245 19.0804 16.662 19.0858 16.6675C19.0913 16.6731 19.1012 16.6777 18.7885 16.7993C18.4263 16.9381 18.0303 17.0814 17.5772 17.2308C17.469 17.2664 17.3608 17.302 17.2526 17.3386C17.2354 17.3446 17.2409 17.3344 17.2911 17.2544C17.5174 16.895 17.8574 16.1907 18.0493 15.6926C18.0819 15.6066 18.1145 15.5201 18.1204 15.5006C18.1227 15.4892 18.1278 15.4786 18.1351 15.4696C18.1425 15.4607 18.1519 15.4537 18.1625 15.4493C18.1731 15.4458 18.184 15.4432 18.195 15.4414H18.1969ZM17.8139 15.6033C17.7584 15.742 17.6957 15.8775 17.6261 16.0094C17.4396 16.3794 17.2359 16.7452 16.9634 17.1887C16.9181 17.265 16.8729 17.3358 16.8674 17.3437C16.862 17.3515 16.8539 17.3534 16.8222 17.2923C16.7531 17.1481 16.7033 16.995 16.6742 16.8372C16.6466 16.6431 16.6498 16.4457 16.6837 16.2527C16.7086 16.131 16.7068 16.1333 16.7642 16.1037C17.01 15.9761 17.8053 15.595 17.8126 15.6033H17.8139ZM21.1259 15.7421V15.8244C21.1215 16.3182 21.0837 16.8112 21.0127 17.2997C21.001 17.3765 20.9915 17.4385 20.9896 17.4412C20.9878 17.444 20.934 17.4255 20.8683 17.4056C20.5629 17.306 20.2676 17.1763 19.9866 17.0185C19.8006 16.9145 19.5299 16.7438 19.5376 16.736C19.5453 16.7281 19.62 16.6897 19.7141 16.6398C20.075 16.4492 20.4255 16.239 20.7642 16.0098C20.8815 15.9298 21.058 15.8003 21.0965 15.7647L21.1272 15.7411L21.1259 15.7421ZM16.3655 16.3216C16.3732 16.3216 16.3714 16.3373 16.3596 16.4076C16.3519 16.4589 16.3424 16.5528 16.3388 16.6176C16.3229 16.9043 16.3691 17.1161 16.5076 17.4038C16.5325 17.4523 16.5549 17.5022 16.5746 17.5532C16.561 17.5647 15.2905 17.9454 14.8908 18.0573L14.6604 18.122C14.6473 18.1257 14.645 18.122 14.6509 18.0906C14.6961 17.802 14.9102 17.4255 15.2094 17.1078C15.3934 16.9094 15.6074 16.7425 15.8431 16.6134C16.0391 16.4996 16.341 16.329 16.3632 16.3211C16.3632 16.3211 16.3632 16.3211 16.3673 16.3211L16.3655 16.3216ZM19.3606 16.8687C19.3965 16.885 19.4311 16.904 19.4642 16.9256C19.9259 17.1883 20.4208 17.385 20.9349 17.5102L20.9801 17.5199L20.9186 17.5555C20.6633 17.7007 19.8245 18.0577 18.9663 18.3852C18.8414 18.4314 18.7187 18.4777 18.6948 18.4893C18.6806 18.4966 18.6653 18.5011 18.6495 18.5027C18.6495 18.5027 18.6843 18.4324 18.7283 18.3477C18.9661 17.8961 19.1683 17.4258 19.333 16.9413C19.3484 16.9043 19.3579 16.8705 19.3601 16.8687H19.3606ZM19.0532 16.9723C19.0452 17.0033 19.0343 17.0335 19.0207 17.0625C18.8264 17.5332 18.6039 17.9911 18.3544 18.4338C18.2833 18.5632 18.224 18.6673 18.2222 18.6673C18.2204 18.6673 18.1625 18.6317 18.0932 18.5887C17.6858 18.3334 17.3237 18.0198 17.0892 17.7155L17.0548 17.6725L17.2296 17.6235C17.8044 17.4662 18.3677 17.2676 18.9152 17.0292C18.9908 16.9963 19.0514 16.9723 19.0532 16.9723ZM20.9503 17.6489C20.9503 17.6952 20.8543 18.098 20.7737 18.3889C20.7063 18.6345 20.6488 18.8264 20.5433 19.1659C20.4981 19.3148 20.4569 19.4387 20.4551 19.4387C20.4465 19.4375 20.438 19.4355 20.4297 19.4327C19.896 19.3373 19.3731 19.1868 18.869 18.9837C18.7332 18.9286 18.5427 18.8403 18.5314 18.8306C18.6143 18.7835 18.7002 18.7421 18.7885 18.7066C19.662 18.3163 20.5682 17.8741 20.8792 17.6827C20.901 17.6673 20.9249 17.6554 20.9503 17.6475V17.6489ZM16.571 17.802C16.5746 17.8057 16.3311 18.165 15.9893 18.6534C15.8703 18.8241 15.7318 19.0234 15.6802 19.0988C15.6286 19.1742 15.5507 19.2894 15.5055 19.3601L15.4249 19.4878L15.3384 19.4128C15.2098 19.2987 15.0904 19.1742 14.9813 19.0405C14.8294 18.8565 14.7199 18.64 14.6608 18.4069C14.6396 18.3144 14.6396 18.2654 14.6586 18.2599C14.6875 18.252 15.2017 18.128 15.6802 18.0143C15.9468 17.9518 16.2559 17.8755 16.3673 17.8496C16.4786 17.8237 16.5692 17.8006 16.571 17.8006V17.802ZM16.8181 17.8973L16.8797 17.9676C17.1378 18.267 17.4418 18.5214 17.78 18.721C17.8172 18.7395 17.852 18.7626 17.8836 18.7899C17.87 18.7996 16.6973 19.2251 16.1536 19.4175C15.8486 19.5271 15.5969 19.6154 15.5951 19.6154C15.5817 19.6078 15.5688 19.5993 15.5566 19.59L15.5222 19.5645L15.5779 19.4822C15.7589 19.2154 15.9853 18.9231 16.4782 18.3149L16.8181 17.8987V17.8973ZM18.3503 19.0174C18.3503 19.0151 18.4363 19.0466 18.54 19.0859C18.7728 19.1756 19.0107 19.251 19.2524 19.3116C19.6068 19.4002 19.9667 19.4637 20.3297 19.5016C20.3718 19.5058 20.3949 19.5095 20.3872 19.5155C20.3795 19.5215 20.0916 19.6196 19.8843 19.6862C19.5539 19.7921 18.5458 20.0964 17.7243 20.3374C17.5727 20.3836 17.4418 20.4197 17.4342 20.422C17.4052 20.4228 17.3767 20.4153 17.3518 20.4003C17.3832 20.3545 17.4172 20.3107 17.4536 20.2689C17.7332 19.9274 17.9935 19.5697 18.2331 19.1978C18.2964 19.0997 18.3503 19.0193 18.3503 19.0174ZM18.0122 19.0271C18.0122 19.0271 17.8764 19.2528 17.6397 19.6371C17.5378 19.7999 17.4246 19.9845 17.3844 20.0492C17.3441 20.114 17.2884 20.2102 17.2558 20.2647L17.2001 20.3651L17.1712 20.3572C17.1024 20.3374 16.6162 20.163 16.4877 20.1098C16.3351 20.048 16.1858 19.9779 16.0405 19.8998C15.887 19.8157 15.6951 19.6899 15.71 19.6862C15.7141 19.6862 15.9771 19.6117 16.294 19.5234C17.135 19.2898 17.6012 19.1534 17.9067 19.0567C17.9411 19.0443 17.9764 19.0344 18.0122 19.0271ZM20.4026 19.5997C20.4103 19.6196 20.0993 20.5025 19.9861 20.7809C19.9608 20.8438 19.9513 20.859 19.9382 20.8572C19.9051 20.8572 19.4543 20.7906 19.1795 20.7494C18.7015 20.675 17.899 20.5316 17.6976 20.4844L17.6523 20.4747L17.9384 20.4081C18.5526 20.2666 18.8482 20.1903 19.1479 20.0959C19.5349 19.9753 19.9131 19.8267 20.2794 19.651C20.3193 19.631 20.3604 19.6139 20.4026 19.5997Z" fill="url(#paint1_linear_81_969)"/>
<path d="M18.9744 8C18.9323 7.99445 18.2502 8.24512 17.8111 8.4278C17.2177 8.67477 16.7569 8.91018 16.4731 9.11414C16.3672 9.19091 16.235 9.32642 16.2137 9.37914C16.2059 9.40042 16.2021 9.42301 16.2024 9.44574L16.4595 9.69502L17.0719 9.89621L18.529 10.1626L20.1956 10.4549L20.2128 10.3078C20.2069 10.3078 20.2033 10.3078 20.1974 10.3078L19.9788 10.2727L19.9335 10.1922C19.7072 9.78428 19.4573 9.27786 19.3116 8.93654C19.2017 8.67866 19.1084 8.4137 19.0323 8.14337C18.9993 8.00971 18.9957 8.00231 18.9744 8ZM18.9454 8.10036C18.9454 8.10036 18.9549 8.15725 18.9626 8.22199C18.9967 8.50297 19.0591 8.77961 19.1486 9.04754C19.2197 9.26352 19.2197 9.2515 19.1373 9.22606C18.9418 9.17102 18.0646 9.01748 17.4291 8.92498C17.3272 8.91157 17.2408 8.89769 17.2408 8.89584C17.2331 8.88798 17.6997 8.6387 17.9052 8.54065C18.1682 8.41624 18.8902 8.11007 18.9454 8.10036ZM17.095 8.97909L17.1697 9.00453C17.5771 9.14559 18.6 9.34584 19.1645 9.39302C19.2279 9.39857 19.2817 9.40458 19.2835 9.40458C19.2449 9.42918 19.2045 9.45082 19.1627 9.46933C18.8911 9.60808 18.5905 9.7792 18.3832 9.91101C18.3437 9.93811 18.3019 9.96163 18.2583 9.9813C18.2506 9.9813 18.2103 9.97344 18.1678 9.96789L18.0908 9.95587L17.8989 9.76347C17.5608 9.42817 17.296 9.16917 17.1941 9.06974L17.095 8.97909ZM17.0181 9.03968L17.2897 9.38516C17.4377 9.57524 17.587 9.76162 17.6201 9.8014C17.6412 9.82538 17.6604 9.85105 17.6776 9.87817C17.6699 9.88372 17.286 9.80741 17.0823 9.76023C16.8787 9.71306 16.7868 9.68762 16.6582 9.64646L16.5523 9.61131V9.58356C16.5546 9.45222 16.7175 9.25612 16.9941 9.05586L17.019 9.03829L17.0181 9.03968ZM19.3179 9.51049C19.3256 9.51049 19.3351 9.52806 19.3582 9.58125C19.4239 9.72832 19.6271 10.1247 19.6751 10.201C19.6905 10.2264 19.7176 10.2287 19.4487 10.1834C18.7979 10.0757 18.5887 10.04 18.5887 10.0363C18.6025 10.0245 18.6177 10.0145 18.634 10.0067C18.8417 9.88724 19.0378 9.74787 19.2197 9.5905C19.265 9.5535 19.3039 9.51789 19.3102 9.51234C19.3166 9.50679 19.3161 9.50633 19.3179 9.50818V9.51049Z" fill="url(#paint2_linear_81_969)"/>
<path d="M16.2296 9.35187C16.2169 9.37844 16.2103 9.40763 16.2103 9.4372C16.2103 9.46678 16.2169 9.49596 16.2296 9.52253C16.255 9.58497 16.3278 9.66128 16.4107 9.74036C16.4107 9.74036 17.2652 10.5913 17.3689 10.7116C17.841 11.2666 18.0479 11.8183 18.0655 12.5754C18.0773 13.062 17.9868 13.4893 17.7622 13.9856C17.363 14.8763 16.5202 15.8591 15.2202 16.9497L15.4103 16.8849C15.5334 16.7924 15.7005 16.6911 16.092 16.471C16.9973 15.965 18.0139 15.4997 19.2605 15.0215C21.0575 14.331 24.0132 13.5226 25.6939 13.2599L25.8686 13.2326L25.8419 13.1891C25.7234 12.997 25.5945 12.8117 25.4558 12.6342C25.0792 12.1612 24.6163 11.7674 24.0929 11.4747C23.3361 11.0464 22.3629 10.7111 21.1308 10.4618C20.8981 10.4156 20.3876 10.3231 19.9729 10.2602C19.0935 10.1215 18.5245 10.0248 17.8994 9.91472C17.6731 9.87541 17.3386 9.81667 17.1159 9.76765C16.9442 9.73056 16.7745 9.68425 16.6076 9.6289C16.469 9.57387 16.2694 9.51883 16.2273 9.35141L16.2296 9.35187ZM16.7248 9.84211C16.7496 9.84819 16.774 9.85607 16.7977 9.8657C16.8705 9.89114 16.9647 9.92073 17.076 9.95218C17.1602 9.97562 17.2447 9.99843 17.3295 10.0206C17.4449 10.0502 17.5409 10.0775 17.5427 10.0775C17.5563 10.0914 17.75 10.725 17.8143 10.9683C17.8392 11.0608 17.8596 11.1389 17.8568 11.1389C17.8379 11.1153 17.8216 11.0896 17.8084 11.0622C17.5821 10.6579 17.229 10.2482 16.818 9.91842C16.7848 9.89546 16.7533 9.86995 16.7239 9.84211H16.7248ZM17.6695 10.109C17.7043 10.1125 17.739 10.1183 17.7731 10.1265C18.0995 10.201 18.6852 10.3148 19.0595 10.3795C19.0978 10.3833 19.1355 10.3919 19.1718 10.405C19.1564 10.4191 19.1388 10.4303 19.1197 10.4383C19.0563 10.472 18.8029 10.627 18.7169 10.6857C18.5226 10.8157 18.3408 10.964 18.1737 11.1288C18.118 11.1856 18.07 11.2328 18.07 11.2328C18.07 11.2328 18.0587 11.1995 18.0492 11.1584C17.9601 10.8291 17.845 10.5077 17.7052 10.1973C17.691 10.168 17.6783 10.1379 17.6672 10.1071C17.6672 10.1108 17.6672 10.1071 17.6672 10.1071L17.6695 10.109ZM19.332 10.4327C19.3433 10.4364 19.3628 10.503 19.4013 10.6505C19.4728 10.9441 19.5033 11.2464 19.4918 11.5487C19.4882 11.631 19.4841 11.7078 19.4805 11.7175L19.4746 11.7369L19.375 11.7036C19.1695 11.637 18.8355 11.5371 18.5494 11.4548C18.386 11.4086 18.2538 11.3683 18.2538 11.3623C18.361 11.2408 18.4743 11.125 18.5933 11.0154C18.7875 10.8406 19.3134 10.4248 19.3306 10.4309L19.332 10.4327ZM19.4646 10.4521C19.4701 10.4461 20.2595 10.5858 20.6184 10.6561C20.885 10.7093 21.2729 10.7916 21.2974 10.8013C21.3091 10.8055 21.2684 10.8291 21.1398 10.8878C20.7019 11.0833 20.2812 11.317 19.8824 11.5862C19.7846 11.6528 19.7014 11.7078 19.7014 11.7078C19.6979 11.666 19.6967 11.624 19.6977 11.582C19.6989 11.2158 19.6284 10.853 19.4904 10.515C19.4784 10.4951 19.469 10.4736 19.4624 10.4512L19.4646 10.4521ZM21.5051 10.8642C21.4988 10.9517 21.4847 11.0383 21.463 11.1232C21.3897 11.4155 21.2055 11.8489 20.9769 12.2549C20.9528 12.3011 20.9259 12.3458 20.8963 12.3886C20.8565 12.3706 20.8181 12.3496 20.7814 12.3257C20.539 12.1831 20.2875 12.0573 20.0286 11.9492C19.9517 11.9159 19.8847 11.8882 19.8829 11.8845C19.8693 11.8724 20.4876 11.4548 20.8139 11.2546C21.0729 11.0936 21.4952 10.8545 21.5029 10.8624L21.5051 10.8642ZM21.6513 10.8878C21.6685 10.8878 22.018 10.9858 22.2004 11.0409C22.6456 11.176 23.0821 11.3391 23.5076 11.5293L23.6479 11.594L23.5502 11.6176C22.7949 11.7895 22.0545 12.0236 21.3363 12.3178C21.2806 12.3414 21.2308 12.3608 21.2267 12.3608C21.2368 12.3262 21.2503 12.2927 21.267 12.2609C21.4725 11.8156 21.6052 11.3508 21.6377 10.9544C21.6377 10.9169 21.6454 10.8878 21.6513 10.8878ZM18.1701 11.7036C18.176 11.6981 18.4417 11.7628 18.587 11.804C18.8056 11.8664 19.27 12.0255 19.27 12.0352C19.27 12.0352 19.2184 12.0815 19.1568 12.1374C18.9056 12.3511 18.6634 12.5768 18.3738 12.8631C18.2873 12.9477 18.2144 13.0162 18.2104 13.0162C18.2063 13.0162 18.2049 13.0046 18.2067 12.9889C18.2495 12.5951 18.2404 12.1972 18.1796 11.8058C18.176 11.7527 18.1683 11.7055 18.1701 11.7036ZM23.7783 11.7096C23.7819 11.7133 23.6552 11.9178 23.5746 12.0334C23.4596 12.2022 23.2903 12.4256 22.9083 12.9163C22.7069 13.1748 22.4801 13.4671 22.4054 13.5638C22.3307 13.6604 22.2651 13.7446 22.2633 13.7446C22.2437 13.7196 22.2257 13.6933 22.2094 13.666C21.9939 13.3356 21.7318 13.0396 21.4318 12.7872C21.3743 12.7382 21.3109 12.685 21.2901 12.6698C21.2759 12.6603 21.2629 12.649 21.2516 12.636C21.2516 12.6305 21.578 12.4871 21.8256 12.3853C22.2597 12.2045 22.8508 11.989 23.2944 11.8498C23.5266 11.7749 23.7742 11.7022 23.7783 11.7064V11.7096ZM23.9258 11.749C23.9647 11.7619 24.0016 11.7804 24.0354 11.804C24.5018 12.0767 24.9333 12.4074 25.32 12.7886C25.4214 12.8904 25.673 13.1586 25.669 13.1586C25.6649 13.1586 25.5784 13.1665 25.477 13.1743C24.6691 13.2372 23.6343 13.4121 22.6394 13.6572C22.5724 13.6729 22.5127 13.6863 22.5091 13.6863C22.5055 13.6863 22.5801 13.61 22.6743 13.518C23.2577 12.9436 23.5248 12.5787 23.8394 11.9312C23.8847 11.8354 23.9222 11.7531 23.9258 11.7462V11.749ZM19.6502 12.1962C19.6774 12.2022 19.9268 12.3215 20.1151 12.4177C20.288 12.5061 20.5469 12.649 20.5605 12.6591C20.5605 12.6591 20.4699 12.71 20.3568 12.7669C19.9947 12.9519 19.6869 13.1258 19.3641 13.326C19.2736 13.3829 19.1953 13.4301 19.1935 13.4301C19.1917 13.4301 19.1876 13.4222 19.2388 13.326C19.4176 12.9862 19.5488 12.6224 19.6285 12.2452C19.6362 12.2156 19.6439 12.1962 19.6493 12.1962H19.6502ZM19.4008 12.2424C19.3739 12.3702 19.3405 12.4965 19.3008 12.6207C19.2112 12.8961 19.0976 13.1626 18.9613 13.4172C18.9305 13.4722 18.8843 13.5527 18.8594 13.598L18.8097 13.6771L18.7019 13.5712C18.5975 13.4629 18.477 13.3722 18.3448 13.3025C18.3128 13.2875 18.2824 13.2691 18.2543 13.2474C18.2543 13.2317 18.5824 12.9278 18.8341 12.7082C19.0151 12.5491 19.3945 12.2373 19.4003 12.2457L19.4008 12.2424ZM20.9271 12.8839L21.0212 12.9463C21.2511 13.1002 21.4722 13.2673 21.6835 13.4468C21.793 13.5393 22.0039 13.733 22.0456 13.7802L22.0687 13.8056L21.913 13.8519C21.0335 14.1007 20.3541 14.3227 19.5592 14.6206C19.471 14.6539 19.3963 14.6816 19.3904 14.6816C19.3845 14.6816 19.3691 14.6913 19.5669 14.5049C20.0533 14.0534 20.4863 13.5452 20.8569 12.9907L20.9244 12.8848L20.9271 12.8839ZM20.5256 12.9857C20.5297 12.9898 20.2667 13.3681 20.1092 13.5823C19.9209 13.8371 19.5868 14.2649 19.3564 14.5433C19.2605 14.6589 19.1781 14.7551 19.1754 14.757C19.1727 14.7588 19.1677 14.7297 19.1677 14.6844C19.1655 14.4395 19.1098 14.1982 19.0047 13.9782C18.9595 13.8857 18.9527 13.8667 18.9626 13.8565C18.9989 13.8232 19.5579 13.4976 19.9109 13.3015C20.149 13.172 20.5215 12.9778 20.527 12.9838L20.5256 12.9857ZM18.099 13.5961C18.1334 13.6109 18.1668 13.6279 18.199 13.647C18.3157 13.7119 18.4262 13.7878 18.529 13.8736C18.496 13.9093 18.4586 13.9404 18.4177 13.9661C18.2366 14.0993 17.9591 14.3135 17.7975 14.4448C17.6287 14.5836 17.6228 14.5859 17.6423 14.5567C17.8215 14.2909 17.9624 14.0001 18.0605 13.6933C18.0681 13.6581 18.081 13.6244 18.099 13.5934V13.5961ZM18.7463 14.1141C18.7558 14.1141 18.7671 14.1299 18.8192 14.2066C18.9313 14.3786 19.0053 14.5735 19.036 14.7778L19.0396 14.8171L18.7766 14.9207C18.3063 15.1057 17.8713 15.2907 17.5785 15.4294C17.4961 15.4688 17.3521 15.5391 17.258 15.5862C17.1639 15.6334 17.0874 15.6727 17.0874 15.6709C17.0874 15.669 17.1467 15.6246 17.2195 15.5687C17.7939 15.1432 18.2909 14.6761 18.6634 14.2094C18.7037 14.1604 18.7404 14.1169 18.744 14.1132L18.7463 14.1141ZM18.4475 14.1872C18.4552 14.1951 18.2366 14.448 18.0854 14.6034C17.7288 14.9782 17.3293 15.3078 16.8954 15.5848L16.78 15.6593C16.7669 15.6672 16.7841 15.6477 16.9837 15.4281C17.1104 15.2893 17.2064 15.1709 17.3159 15.0257C17.3669 14.9513 17.4322 14.8883 17.5079 14.8407C17.7899 14.6307 18.4407 14.1793 18.4475 14.1872Z" fill="url(#paint3_radial_81_969)"/>
<path d="M10.1349 22.3099C10.0996 22.3099 10.0638 22.3131 10.029 22.3131C9.31379 22.3524 8.83128 22.6739 8.54883 23.3019C8.30758 23.8703 8.33428 24.6126 8.55155 25.1843C8.80638 25.7429 9.21376 26.0371 9.89634 26.149C10.0407 26.1731 10.1376 26.254 10.4173 26.5879L10.7613 27H11.3864L10.9714 26.5722C10.7419 26.3377 10.5563 26.1337 10.5563 26.1157C10.5563 26.0977 10.6441 26.0588 10.7505 26.0255C11.1008 25.9173 11.3914 25.6407 11.5951 25.2171C11.7599 24.8767 11.7834 24.7717 11.8069 24.3485C11.8689 23.0883 11.2185 22.3006 10.1358 22.3094L10.1349 22.3099ZM10.6821 25.6051C10.3784 25.7554 9.93753 25.7855 9.64965 25.6773C9.35227 25.5658 9.06394 25.2499 8.93448 24.891C8.79009 24.5002 8.81091 23.7788 8.97567 23.4541C9.24047 22.937 9.59081 22.6988 10.1023 22.6988C10.8618 22.6988 11.2936 23.1743 11.3498 24.0669C11.395 24.8124 11.1502 25.3716 10.6826 25.6033L10.6821 25.6051ZM21.4654 23.3852C21.2033 23.3852 21.0028 23.4934 20.8679 23.7089L20.762 23.8777V23.4384H20.3093V26.0722H20.762V25.2305C20.762 24.4605 20.7715 24.3707 20.8769 24.1598C21.0218 23.8712 21.2716 23.727 21.5106 23.7959L21.6727 23.8444V23.387H21.4636L21.4654 23.3852ZM18.8029 23.3611C18.7098 23.362 18.6171 23.3732 18.5264 23.3944C17.9198 23.5563 17.5758 24.1492 17.5989 24.7592C17.5989 25.2703 17.6962 25.5256 17.9375 25.7938C18.4318 26.2101 18.879 26.241 19.4824 26.0191C19.5851 25.9728 19.6974 25.9224 19.6974 25.9224V25.5061L19.4824 25.6208C18.994 25.8378 18.6264 25.8378 18.3317 25.582C18.1439 25.3868 18.0602 25.1523 18.023 24.8846H19.8508V24.5294C19.8508 23.8056 19.4244 23.3486 18.8034 23.3602L18.8029 23.3611ZM18.0642 24.5173C18.0642 24.5173 18.1317 24.066 18.3811 23.8884C18.4964 23.805 18.6341 23.7601 18.7753 23.7598C18.9135 23.76 19.0478 23.8062 19.1578 23.8916C19.3873 24.072 19.4258 24.5141 19.4258 24.5141H18.0633V24.5173H18.0642ZM7.13976 24.0419C6.6482 23.7376 6.43048 23.5184 6.45718 23.2622C6.53323 22.5467 7.39867 22.6457 7.87757 22.9167L7.88119 22.4352C7.67521 22.3553 7.45695 22.3135 7.23663 22.3117C6.65408 22.3029 6.27748 22.4967 6.10096 22.8949C5.84205 23.4814 6.07153 23.923 6.90077 24.4161C7.36654 24.6936 7.57204 24.9331 7.57204 25.1954C7.57204 25.7365 6.93336 25.9256 6.27477 25.5862C6.13898 25.5168 6.02401 25.4594 6.01812 25.4594C5.99458 25.613 6.00681 25.9802 6.00681 25.9802C6.17069 26.0449 6.3401 26.094 6.51286 26.1268C7.26605 26.2804 7.95135 25.9192 8.01608 25.3332C8.0722 24.7828 7.87757 24.4942 7.13976 24.0438V24.0419ZM25.4758 23.3546C25.3815 23.3558 25.2876 23.3669 25.1956 23.3879C24.5899 23.5498 24.2487 24.1427 24.2722 24.7532C24.2722 25.262 24.3691 25.5163 24.6103 25.7841C25.1046 26.2003 25.5518 26.2323 26.1579 26.0093C26.2606 25.9631 26.3724 25.9136 26.3724 25.9136V25.4974L26.1574 25.6116C25.6686 25.828 25.3006 25.828 25.0073 25.5723C24.8181 25.3771 24.7357 25.1454 24.6981 24.8749H26.5223V24.5197C26.5223 23.7991 26.0954 23.3417 25.4749 23.3537L25.4758 23.3546ZM24.7366 24.5109C24.7366 24.5109 24.8049 24.0599 25.0534 23.8791C25.1685 23.7955 25.3061 23.7504 25.4472 23.7501C25.5856 23.75 25.7202 23.7965 25.8302 23.8823C26.0597 24.0627 26.0981 24.5076 26.0981 24.5076H24.7393V24.5109H24.7366ZM16.4311 24.0484C15.9395 23.745 15.7223 23.5248 15.749 23.2663C15.825 22.5504 16.69 22.6498 17.1694 22.9204L17.1725 22.4394C16.9666 22.3592 16.7483 22.3175 16.528 22.3164C15.9459 22.3076 15.5693 22.5014 15.3923 22.9C15.1338 23.486 15.366 23.9277 16.193 24.4207C16.6579 24.6982 16.8634 24.9345 16.8634 25.1967C16.8634 25.7379 16.2252 25.9298 15.5661 25.5871C15.4303 25.5182 15.3167 25.4613 15.3099 25.4613C15.2864 25.6148 15.2981 25.9821 15.2981 25.9821C15.4614 26.0457 15.6296 26.0951 15.801 26.1296C16.5547 26.2836 17.2404 25.9229 17.3052 25.3369C17.3613 24.7884 17.1666 24.4993 16.4311 24.0484ZM28.1382 23.3805C27.8766 23.3805 27.6738 23.4888 27.5412 23.7043L27.4352 23.8726V23.4342H26.9826V26.0648H27.4352V25.2231C27.4352 24.4535 27.4443 24.3633 27.5498 24.1529C27.6951 23.8643 27.9445 23.72 28.1857 23.7894L28.3478 23.8356V23.3782L28.1382 23.3805ZM12.8276 24.0327V22.3547H12.3705V26.0709H14.2919V25.6319H12.8276V24.0327ZM23.3927 24.5571L23.0161 25.5579L22.654 24.5516L22.286 23.4356H21.8184C22.1217 24.3143 22.4521 25.2065 22.7835 26.0718C22.9274 26.075 23.0718 26.0718 23.2162 26.0718L23.7245 24.7671L24.2414 23.4347H23.7947C23.7947 23.4347 23.5973 23.9637 23.3914 24.5557L23.3927 24.5571ZM13.88 21.3424C13.9144 21.3434 13.9486 21.3373 13.9806 21.3242C14.0125 21.3112 14.0415 21.2915 14.0656 21.2665C14.0902 21.2428 14.1097 21.2141 14.1229 21.1822C14.136 21.1504 14.1426 21.1161 14.1421 21.0815C14.1428 21.0469 14.1364 21.0126 14.1232 20.9807C14.11 20.9488 14.0904 20.9201 14.0656 20.8965C14.017 20.8488 13.9519 20.8227 13.8846 20.8239C13.8502 20.8228 13.816 20.8289 13.7841 20.8419C13.7522 20.8549 13.7232 20.8744 13.699 20.8993C13.6749 20.9233 13.6559 20.9521 13.6432 20.9839C13.6305 21.0158 13.6244 21.0499 13.6252 21.0843C13.6239 21.1187 13.6297 21.153 13.6425 21.1849C13.6552 21.2169 13.6745 21.2456 13.699 21.2693C13.7228 21.2932 13.7511 21.312 13.7822 21.3245C13.8134 21.337 13.8466 21.3429 13.88 21.3419V21.3424ZM13.7184 20.915C13.7507 20.8821 13.7918 20.8597 13.8365 20.8505C13.8812 20.8414 13.9275 20.846 13.9697 20.8637C14.0119 20.8813 14.048 20.9114 14.0735 20.95C14.099 20.9886 14.1128 21.034 14.1131 21.0806C14.1136 21.1118 14.1078 21.1427 14.0962 21.1716C14.0846 21.2004 14.0674 21.2266 14.0457 21.2485C14.0245 21.2701 13.9992 21.2872 13.9713 21.2985C13.9435 21.3099 13.9136 21.3154 13.8836 21.3146C13.8536 21.3158 13.8237 21.3106 13.7957 21.2992C13.7678 21.2878 13.7426 21.2705 13.7216 21.2485C13.6999 21.2266 13.6827 21.2004 13.6711 21.1716C13.6595 21.1427 13.6537 21.1118 13.6542 21.0806C13.6532 21.05 13.6583 21.0194 13.6694 20.991C13.6805 20.9625 13.6972 20.9366 13.7184 20.915ZM13.8271 21.1046H13.8569C13.8778 21.1046 13.8986 21.1254 13.9158 21.1648L13.9515 21.2457H14.0072L13.962 21.1555C13.9438 21.1194 13.9262 21.0982 13.9058 21.0926C13.9293 21.0886 13.9509 21.0769 13.9674 21.0593C13.9815 21.0427 13.9886 21.0211 13.9873 20.9992C13.9881 20.9872 13.9862 20.9752 13.9816 20.9641C13.9771 20.953 13.97 20.9432 13.961 20.9354C13.9333 20.9159 13.9 20.9066 13.8664 20.909H13.7728V21.2457H13.8203V21.1069L13.8271 21.1046ZM13.8271 20.9479H13.8683C13.89 20.9463 13.9116 20.9516 13.9303 20.9631C13.936 20.9683 13.9403 20.9749 13.9428 20.9823C13.9453 20.9896 13.946 20.9975 13.9448 21.0052C13.9448 21.0441 13.9208 21.0625 13.8773 21.0625H13.8266V20.9497L13.8271 20.9479ZM6.28065 21.0746C6.28065 20.9576 6.27703 20.8702 6.27432 20.8188H6.27703C6.28619 20.8653 6.29952 20.9108 6.31686 20.9548L6.75547 21.9556H6.8288L7.26741 20.9455C7.28304 20.9044 7.29575 20.8622 7.30543 20.8193H7.30905C7.30045 20.9192 7.29728 21.0043 7.29728 21.075V21.9589H7.44846V20.6454H7.2579L6.8546 21.5588C6.83966 21.5953 6.81929 21.6513 6.79259 21.7211H6.7867C6.77128 21.6676 6.7516 21.6155 6.72786 21.5653L6.33406 20.6403H6.13581V21.9538H6.27839V21.075L6.28065 21.0746ZM7.77437 21.0769H7.90427V21.895H7.77482L7.77437 21.0769ZM7.83955 20.7772C7.85204 20.7774 7.86445 20.7751 7.87604 20.7703C7.88763 20.7656 7.89815 20.7585 7.90699 20.7494C7.91617 20.7406 7.92351 20.7299 7.92856 20.718C7.93362 20.7062 7.93629 20.6934 7.93641 20.6805C7.93693 20.6675 7.93455 20.6546 7.92946 20.6426C7.92436 20.6307 7.91668 20.6201 7.90699 20.6116C7.8981 20.6025 7.8875 20.5954 7.87583 20.5906C7.86416 20.5859 7.85166 20.5836 7.83909 20.5839C7.82658 20.5835 7.81413 20.5858 7.80252 20.5905C7.79092 20.5953 7.7804 20.6025 7.77165 20.6116C7.76239 20.6205 7.75497 20.6311 7.74983 20.643C7.7447 20.6548 7.74196 20.6676 7.74178 20.6805C7.74103 20.6936 7.74334 20.7067 7.74854 20.7187C7.75374 20.7307 7.76166 20.7412 7.77165 20.7494C7.78978 20.7673 7.81395 20.7772 7.83909 20.7772H7.83955ZM8.82811 21.9131V21.7688C8.76347 21.8206 8.68393 21.8492 8.60179 21.8502C8.55947 21.8518 8.51731 21.8439 8.47823 21.8273C8.43916 21.8106 8.40409 21.7854 8.37547 21.7535C8.31604 21.6815 8.28547 21.5891 8.28992 21.495C8.28482 21.3954 8.31721 21.2976 8.38045 21.2216C8.4094 21.1892 8.44492 21.1635 8.48455 21.1464C8.52417 21.1293 8.56695 21.1212 8.60994 21.1227C8.68822 21.1231 8.76444 21.1483 8.82811 21.1948V21.0422C8.76248 21.0085 8.68972 20.9918 8.61628 20.9936C8.55192 20.9906 8.48765 21.0015 8.42778 21.0259C8.36791 21.0502 8.31381 21.0873 8.2691 21.1347C8.1806 21.2371 8.13436 21.3705 8.1401 21.507C8.13496 21.6307 8.17699 21.7515 8.25733 21.8442C8.29775 21.8883 8.34691 21.9232 8.40154 21.9465C8.45616 21.9698 8.51501 21.9809 8.57418 21.9792C8.66266 21.9796 8.74977 21.9568 8.82721 21.9131H8.82811ZM9.19882 21.4769C9.19417 21.3867 9.21779 21.2973 9.26627 21.2216C9.2831 21.1968 9.30553 21.1764 9.33169 21.1622C9.35784 21.1481 9.38694 21.1405 9.41654 21.1402C9.45599 21.137 9.49532 21.1478 9.52789 21.1708V21.0145C9.49971 21.0044 9.46987 21.0002 9.44008 21.002C9.38846 21.0022 9.33847 21.0205 9.2984 21.0538C9.25019 21.0951 9.21545 21.1504 9.19882 21.2124H9.19566V21.0205H9.049V21.9584H9.19611V21.4769H9.19882ZM10.0434 21.9769C10.1051 21.9796 10.1666 21.9688 10.2239 21.9454C10.2812 21.922 10.3329 21.8863 10.3757 21.8409C10.4612 21.7417 10.5055 21.6123 10.4993 21.4802C10.4993 21.3271 10.4612 21.2096 10.3843 21.1222C10.3433 21.0781 10.2934 21.0437 10.2381 21.0214C10.1827 20.9991 10.1232 20.9895 10.0638 20.9932C10.0032 20.9903 9.94263 20.9998 9.88561 21.021C9.82859 21.0422 9.77623 21.0747 9.73158 21.1167C9.68506 21.167 9.64903 21.2266 9.62569 21.2916C9.60235 21.3566 9.59217 21.4258 9.59579 21.495C9.58944 21.6215 9.63148 21.7455 9.71302 21.8409C9.75526 21.8863 9.80654 21.9219 9.86338 21.9452C9.92023 21.9686 9.98133 21.9793 10.0425 21.9764L10.0434 21.9769ZM9.83433 21.2129C9.8627 21.1827 9.89703 21.1591 9.93504 21.1435C9.97305 21.128 10.0139 21.1209 10.0548 21.1227C10.0954 21.1202 10.1361 21.127 10.1738 21.1426C10.2115 21.1582 10.2454 21.1822 10.2729 21.2129C10.3237 21.2928 10.3512 21.3859 10.3521 21.4812C10.3531 21.5765 10.3275 21.6702 10.2784 21.7512C10.2514 21.7836 10.2175 21.8091 10.1792 21.8258C10.141 21.8425 10.0995 21.8499 10.0579 21.8474C10.016 21.8491 9.9743 21.8413 9.93566 21.8247C9.89702 21.8081 9.86242 21.783 9.83433 21.7512C9.77522 21.6766 9.74581 21.582 9.75195 21.4862C9.74706 21.4373 9.75184 21.3879 9.76599 21.341C9.78014 21.294 9.80338 21.2505 9.83433 21.2129ZM11.1434 21.895C11.1707 21.8715 11.1926 21.842 11.2074 21.8087C11.2222 21.7754 11.2296 21.7392 11.2289 21.7026C11.2296 21.6709 11.224 21.6394 11.2124 21.61C11.2008 21.5806 11.1835 21.5539 11.1615 21.5315C11.1114 21.4865 11.0533 21.4518 10.9904 21.4293C10.9409 21.4102 10.8944 21.3839 10.8523 21.3511C10.8396 21.3387 10.8296 21.3237 10.823 21.307C10.8163 21.2904 10.8132 21.2725 10.8138 21.2545C10.8137 21.2365 10.8177 21.2187 10.8255 21.2027C10.8334 21.1866 10.8449 21.1726 10.8591 21.162C10.8931 21.1362 10.9349 21.1234 10.9772 21.1259C11.0521 21.1246 11.1255 21.148 11.1864 21.1925V21.0422C11.1251 21.0111 11.0575 20.9952 10.989 20.996C10.9048 20.9925 10.8221 21.0202 10.7564 21.0741C10.7309 21.0957 10.7098 21.1223 10.6944 21.1523C10.6789 21.1822 10.6694 21.215 10.6664 21.2487C10.6634 21.2825 10.6669 21.3165 10.6767 21.3488C10.6866 21.3811 10.7026 21.4112 10.7238 21.4372C10.771 21.4835 10.8271 21.5194 10.8885 21.5426C10.9424 21.5642 10.993 21.5935 11.0388 21.6296C11.0512 21.6408 11.061 21.6546 11.0676 21.6701C11.0742 21.6856 11.0773 21.7024 11.0768 21.7193C11.0768 21.8067 11.018 21.852 10.9035 21.852C10.816 21.8525 10.7312 21.8207 10.6649 21.7623V21.9246C10.7338 21.9644 10.8121 21.9841 10.8912 21.9815C10.9829 21.9833 11.0723 21.9526 11.1443 21.8946L11.1434 21.895ZM11.8436 20.9932C11.783 20.9904 11.7224 20.9999 11.6654 21.0211C11.6084 21.0423 11.5561 21.0747 11.5114 21.1167C11.4649 21.1671 11.429 21.2266 11.4056 21.2916C11.3823 21.3567 11.3721 21.4258 11.3756 21.495C11.3695 21.6214 11.4115 21.7454 11.4928 21.8409C11.5819 21.9281 11.7005 21.9767 11.8239 21.9767C11.9473 21.9767 12.0659 21.9281 12.155 21.8409C12.241 21.7421 12.2854 21.6127 12.2786 21.4806C12.2786 21.3271 12.2401 21.2096 12.1641 21.1227C12.1229 21.0789 12.0729 21.0446 12.0176 21.0223C11.9623 21 11.903 20.99 11.8436 20.9932ZM12.1292 21.4862C12.1358 21.5806 12.1097 21.6744 12.0554 21.7512C12.0285 21.7836 11.9946 21.8092 11.9564 21.8259C11.9181 21.8426 11.8765 21.85 11.835 21.8474C11.7931 21.8491 11.7514 21.8413 11.7127 21.8247C11.6741 21.8081 11.6395 21.783 11.6114 21.7512C11.5523 21.6766 11.5229 21.582 11.529 21.4862C11.5225 21.3851 11.555 21.2855 11.6195 21.2087C11.648 21.1786 11.6825 21.155 11.7205 21.1394C11.7586 21.1239 11.7995 21.1167 11.8404 21.1185C11.8809 21.1165 11.9213 21.1236 11.9588 21.1391C11.9963 21.1547 12.0301 21.1784 12.0577 21.2087C12.1106 21.2908 12.1363 21.3881 12.131 21.4862H12.1292ZM12.5266 21.9556H12.6733V21.1435H12.8883V21.0172H12.6733V20.8725C12.6733 20.7407 12.7235 20.6745 12.8267 20.6745C12.8604 20.6743 12.8935 20.6828 12.9231 20.699V20.5635C12.8892 20.5514 12.8531 20.5464 12.8172 20.5487C12.7812 20.5474 12.7453 20.5533 12.7115 20.5661C12.6777 20.579 12.6467 20.5985 12.6203 20.6236C12.5884 20.6549 12.5635 20.6928 12.5472 20.7348C12.5308 20.7767 12.5235 20.8218 12.5257 20.8669V21.0209H12.3705V21.1472H12.5257V21.9561L12.5266 21.9556ZM13.1295 21.6994C13.1295 21.8844 13.2088 21.9769 13.3708 21.9769C13.4189 21.9795 13.4667 21.9688 13.5093 21.9459V21.8169C13.4819 21.8374 13.4487 21.8482 13.4147 21.8474C13.3953 21.8497 13.3757 21.8474 13.3574 21.8406C13.3391 21.8337 13.3226 21.8226 13.3092 21.8081C13.2844 21.7678 13.273 21.7205 13.2767 21.673V21.143H13.5093V21.0168H13.2767V20.7393C13.226 20.7568 13.1762 20.7721 13.1291 20.7855V21.0135H12.9707V21.1398H13.1291V21.6948L13.1295 21.6994ZM28.9208 23.4282C28.8722 23.3806 28.8071 23.3546 28.7397 23.356C28.7057 23.3552 28.6719 23.3613 28.6402 23.3741C28.6086 23.3869 28.5798 23.4061 28.5556 23.4306C28.5314 23.455 28.5122 23.4842 28.4993 23.5164C28.4864 23.5485 28.4799 23.583 28.4804 23.6178C28.4794 23.6522 28.4854 23.6863 28.498 23.7182C28.5106 23.75 28.5296 23.7789 28.5537 23.8028C28.6038 23.851 28.6705 23.877 28.7393 23.8749C28.7736 23.876 28.8077 23.8698 28.8396 23.857C28.8715 23.8441 28.9005 23.8247 28.9249 23.8C28.9492 23.7761 28.9685 23.7473 28.9815 23.7155C28.9946 23.6837 29.0012 23.6495 29.0009 23.615C29.0004 23.5804 28.9931 23.5461 28.9795 23.5144C28.9659 23.4826 28.9463 23.4539 28.9217 23.43L28.9208 23.4282ZM28.8968 23.7834C28.8757 23.8051 28.8505 23.8221 28.8227 23.8333C28.7949 23.8445 28.7651 23.8497 28.7352 23.8486C28.7053 23.8496 28.6755 23.8444 28.6476 23.8331C28.6197 23.8219 28.5944 23.805 28.5732 23.7834C28.5515 23.7613 28.5343 23.7349 28.5227 23.7059C28.5112 23.677 28.5054 23.6459 28.5057 23.6146C28.5047 23.5839 28.5099 23.5533 28.521 23.5248C28.5322 23.4963 28.549 23.4705 28.5705 23.449C28.6148 23.4068 28.6731 23.3834 28.7336 23.3834C28.7942 23.3834 28.8525 23.4068 28.8968 23.449C28.9185 23.4705 28.9356 23.4962 28.9472 23.5247C28.9588 23.5532 28.9646 23.5837 28.9643 23.6146C28.9658 23.646 28.9606 23.6774 28.949 23.7065C28.9375 23.7357 28.9198 23.7619 28.8973 23.7834H28.8968ZM28.7651 23.6321C28.7884 23.6274 28.8099 23.616 28.8271 23.5993C28.8412 23.5824 28.8484 23.5605 28.847 23.5383C28.8478 23.5264 28.8458 23.5145 28.8412 23.5036C28.8367 23.4927 28.8297 23.483 28.8208 23.4754C28.7932 23.456 28.76 23.4467 28.7266 23.449H28.632V23.7852H28.6795V23.6414H28.7085C28.7289 23.6414 28.7493 23.6622 28.7674 23.7015L28.8027 23.7825H28.8583L28.8131 23.6923C28.7977 23.653 28.78 23.6349 28.7624 23.6294L28.7651 23.6321ZM28.733 23.6021H28.6823V23.4883H28.7225C28.7442 23.4863 28.766 23.4915 28.7846 23.5031C28.7963 23.5119 28.799 23.5235 28.799 23.5452C28.799 23.584 28.7755 23.6021 28.7316 23.6021H28.733ZM20.5239 20.9784H20.5651V20.6417H20.6742V20.5996H20.4148V20.6417H20.5239V20.9784ZM20.7737 20.7254C20.7746 20.7004 20.7736 20.6753 20.771 20.6505C20.7736 20.6638 20.7776 20.6768 20.7828 20.6893L20.9091 20.9784H20.9294L21.0562 20.6865C21.0598 20.6778 21.0625 20.6662 21.068 20.6505C21.0652 20.6805 21.0652 20.7046 21.0652 20.7231V20.9779H21.1105V20.5996H21.0575L20.943 20.8609C20.9403 20.8702 20.9313 20.8882 20.9254 20.9072H20.9222C20.9177 20.8913 20.9119 20.8758 20.905 20.8609L20.7905 20.5964H20.7312V20.9756H20.7724V20.7226L20.7737 20.7254Z" fill="#231F1F"/>
</g>
<defs>
<linearGradient id="paint0_linear_81_969" x1="19" y1="30" x2="19" y2="4.5" gradientUnits="userSpaceOnUse">
<stop stop-color="white"/>
<stop offset="1" stop-color="white" stop-opacity="0.66"/>
</linearGradient>
<linearGradient id="paint1_linear_81_969" x1="15.5979" y1="19.185" x2="16.5364" y2="18.6423" gradientUnits="userSpaceOnUse">
<stop stop-color="#909CA9"/>
<stop offset="1" stop-color="#EDEDEE"/>
</linearGradient>
<linearGradient id="paint2_linear_81_969" x1="15.6186" y1="8.6227" x2="16.3655" y2="8.6227" gradientUnits="userSpaceOnUse">
<stop stop-color="#939FAB"/>
<stop offset="1" stop-color="#DCDEE1"/>
</linearGradient>
<radialGradient id="paint3_radial_81_969" cx="0" cy="0" r="1" gradientUnits="userSpaceOnUse" gradientTransform="translate(20.5889 13.6875) rotate(-169.476) scale(0.924526 1.95455)">
<stop stop-color="#EE352C"/>
<stop offset="1" stop-color="#A91D22"/>
</radialGradient>
<clipPath id="clip0_81_969">
<rect width="23" height="19" fill="white" transform="translate(6 8)"/>
</clipPath>
</defs>
</svg>
