<svg width="17" height="17" viewBox="0 0 17 17" fill="none" xmlns="http://www.w3.org/2000/svg">
<g clip-path="url(#clip0_81_979)">
<path fill-rule="evenodd" clip-rule="evenodd" d="M8.5 0C13.1941 0 17 3.80591 17 8.5C17 13.1941 13.1941 17 8.5 17C3.80591 17 0 13.1941 0 8.5C0 3.80591 3.80591 0 8.5 0Z" fill="#86DAF1"/>
<path fill-rule="evenodd" clip-rule="evenodd" d="M1.62695 12.8911C1.12614 12.1316 0.751221 11.2808 0.53125 10.369L2.02816 11.0912L2.03646 11.5381C2.03646 11.7027 1.757 12.0513 1.66707 12.1842L1.62695 12.8911ZM10.8339 0.899241C13.6866 1.84691 15.8268 4.3579 16.2391 7.41535L15.9693 7.3863C15.9209 7.59382 15.8766 7.59797 15.8766 7.84699C15.8766 8.06697 16.1533 8.21361 16.1533 8.67707C16.1533 8.80158 15.8614 9.04922 15.849 9.0935L15.4159 8.58576V9.23184L15.3509 9.22907L15.2347 8.03653L14.9926 8.11262L14.7048 7.22582L13.7572 8.21638L13.7461 8.94131L13.4362 9.14883L13.1069 7.28946L12.9105 7.43334L12.465 6.83153L11.7996 6.8509L11.545 6.55899L11.2835 6.63093L10.7703 6.04296L10.6707 6.11075L10.9889 6.92422H11.3582V6.74022H11.5422C11.6751 7.10823 11.8189 6.88964 11.8189 7.10961C11.8189 7.87743 10.8713 8.44188 10.2501 8.58576C10.2833 8.72411 10.2708 8.86246 10.4341 8.86246C10.7813 8.86246 10.6084 8.80158 10.9875 8.76976C10.9695 9.55419 10.0882 10.4908 9.71192 11.0732L9.8807 12.2755C9.92497 12.5369 9.33838 12.8122 9.13916 13.1069L9.23462 13.5676L8.96485 13.6769C8.91781 14.1501 8.4585 14.6744 7.94247 14.6744H7.38908C7.38908 14.0269 6.927 13.1014 6.927 12.6435C6.927 12.2547 7.111 12.2021 7.111 11.7207C7.111 11.2752 6.65031 10.6374 6.65031 10.5212V9.78246H6.28093C6.22559 9.57632 6.26017 9.50577 6.00423 9.50577H5.91154C5.50895 9.50577 5.57674 9.68977 5.17277 9.68977H4.80339C4.46997 9.68977 3.88062 8.62173 3.88062 8.4903V7.38353C3.88062 6.90624 4.31779 6.38606 4.61939 6.18407V5.72338L5.03442 5.30142L5.26546 5.26269C5.76074 5.26269 5.70125 4.98599 6.00423 4.98599H6.83431V5.63207L7.7474 6.02221L7.83317 5.62792C8.24683 5.72476 8.35474 5.90876 8.86385 5.90876H9.04785C9.39787 5.90876 9.41724 5.44392 9.41724 5.07868L8.67847 5.15201L8.35612 4.45198L8.03654 4.53637C8.09465 4.78677 8.12508 4.68301 8.12508 4.89468C8.12508 5.0192 8.02271 5.03303 7.9397 5.07868L7.62012 4.26797L6.93254 3.77684L6.84123 3.86677L7.42643 4.48241C7.34896 4.70377 7.33928 5.34154 7.01693 4.89468L7.31852 4.74942L6.56592 3.96085L6.11491 4.13655L5.66943 4.56265C5.6224 4.90575 5.5297 5.07868 5.17 5.07868C4.93066 5.07868 5.07454 5.01643 4.70793 4.98599V4.06322H5.538L5.26823 3.44896L5.16862 3.50984V3.32445L6.5175 2.70328C6.4926 2.50959 6.46078 2.61335 6.46078 2.40168C6.46078 2.38923 6.5507 2.21907 6.55347 2.2163L6.9021 2.4335L6.81909 2.03645L6.28093 2.14713L6.18132 1.6643C6.60742 1.44018 7.54679 0.648834 7.84562 0.648834H8.12232C8.41423 0.648834 9.1945 0.936595 9.32178 1.10953L8.58162 1.03482L9.13086 1.48721L9.18343 1.29353L9.59294 1.18147L9.59847 0.925527H9.78386V1.20222L10.8339 0.899241Z" fill="#03AA6F"/>
</g>
<defs>
<clipPath id="clip0_81_979">
<rect width="17" height="17" fill="white"/>
</clipPath>
</defs>
</svg>
