<svg width="17" height="17" viewBox="0 0 17 17" fill="none" xmlns="http://www.w3.org/2000/svg">
<g clip-path="url(#clip0_81_977)">
<rect width="17" height="17" rx="8.5" fill="white"/>
<path fill-rule="evenodd" clip-rule="evenodd" d="M8.49968 0.211792C3.80622 0.211792 0 4.01737 0 8.71145C0 12.4672 2.4352 15.6522 5.81257 16.7766C6.23767 16.8554 6.39391 16.5918 6.39391 16.3672C6.39391 16.1645 6.38544 15.495 6.38199 14.7853C4.01707 15.2996 3.51855 13.782 3.51855 13.782C3.13201 12.7994 2.57481 12.5381 2.57481 12.5381C1.80365 12.01 2.63349 12.0216 2.63349 12.0216C3.48683 12.0813 3.93611 12.897 3.93611 12.897C4.69474 14.1965 5.92519 13.8203 6.4099 13.6035C6.48646 13.0541 6.70608 12.6789 6.94952 12.4665C5.06146 12.2523 3.07679 11.5231 3.07679 8.26594C3.07679 7.33822 3.40935 6.57962 3.95242 5.98475C3.86397 5.77018 3.57282 4.90616 4.03431 3.7356C4.03431 3.7356 4.74805 3.5069 6.37258 4.60685C7.05025 4.41892 7.77715 4.32417 8.49907 4.32104C9.22157 4.32417 9.94976 4.4186 10.6284 4.60685C12.2507 3.50753 12.9638 3.7356 12.9638 3.7356C13.4259 4.90647 13.1361 5.77111 13.0476 5.98478C13.5925 6.57962 13.9223 7.33822 13.9223 8.26594C13.9223 11.5307 11.9332 12.2485 10.041 12.459C10.346 12.7225 10.6183 13.2399 10.6183 14.0324C10.6183 15.169 10.6086 16.0851 10.6086 16.3647C10.6086 16.5909 10.7617 16.8553 11.1928 16.7725C14.5682 15.6475 17.0003 12.4621 17.0003 8.7086C17.0003 4.01514 13.1947 0.208923 8.50032 0.208923L8.49971 0.211766L8.49968 0.211792Z" fill="black"/>
</g>
<defs>
<clipPath id="clip0_81_977">
<rect width="17" height="17" rx="8.5" fill="white"/>
</clipPath>
</defs>
</svg>
