<svg width="35" height="35" viewBox="0 0 35 35" fill="none" xmlns="http://www.w3.org/2000/svg">
<rect width="35" height="35" rx="5" fill="#222222"/>
<path d="M23.8171 17.4127C23.79 17.4285 22.8956 17.2857 21.7747 17.2136C20.8258 17.1564 19.8741 17.1564 18.9252 17.2136C18.2221 17.2614 17.2961 16.9229 17.1856 17.3225C16.7718 18.8191 15.8799 20.1229 14.7494 21.1383C13.9236 21.8885 12.9426 22.4671 11.8688 22.8373C10.6133 22.2243 10.0202 20.8609 10.5551 19.6655C10.9794 18.717 11.4731 17.6729 10.5616 17.4337C9.8982 17.2599 9.5341 17.8634 9.27899 18.5102C8.78985 19.7472 7.86128 21.028 7.59663 22.5452C7.3174 24.1463 7.59663 25.8463 9.053 26.8059C12.4458 29.0415 16.129 25.4214 20.0124 24.5101C21.4186 24.1797 22.9644 24.2332 24.2043 23.5505C24.6521 23.308 25.0382 22.9748 25.3353 22.5745C25.6324 22.1742 25.8331 21.7166 25.9233 21.2342C26.203 19.6994 25.3634 18.1761 23.8171 17.4127Z" fill="#C21325" stroke="white"/>
<path d="M17.1856 17.3281C16.7718 18.8247 15.8799 20.1285 14.7494 21.1439C13.9238 21.8945 12.9428 22.4735 11.8688 22.8439C10.6133 22.2309 10.0207 20.8675 10.5556 19.6721C10.9799 18.7235 11.4736 17.6795 10.5621 17.4403C9.8987 17.2665 9.5341 17.87 9.27949 18.5168C8.78985 19.7538 7.86128 21.0351 7.59663 22.5517C7.3174 24.1529 7.59663 25.8529 9.053 26.8125C12.4458 29.0481 16.129 25.428 20.0124 24.5167C21.4186 24.1863 22.9644 24.2398 24.2043 23.5571C24.6521 23.3146 25.0382 22.9814 25.3353 22.5811C25.6324 22.1808 25.8331 21.7232 25.9233 21.2408C26.2035 19.707 25.3639 18.1827 23.8176 17.4217" stroke="white"/>
<path d="M20.3016 11.3594L23.0296 16.6493L26.2989 7.48438H14.2969L17.5581 16.6331L20.3016 11.3594Z" fill="#C21325"/>
<path d="M20.3016 11.3594L23.0296 16.6493L26.2989 7.48438H14.2969L17.5581 16.6331L20.3016 11.3594Z" stroke="white"/>
<path d="M16.994 19.3005C18.1298 19.3005 19.0505 18.4252 19.0505 17.3455C19.0505 16.2659 18.1298 15.3906 16.994 15.3906C15.8582 15.3906 14.9375 16.2659 14.9375 17.3455C14.9375 18.4252 15.8582 19.3005 16.994 19.3005Z" fill="#C21325"/>
<path d="M16.994 19.3005C18.1298 19.3005 19.0505 18.4252 19.0505 17.3455C19.0505 16.2659 18.1298 15.3906 16.994 15.3906C15.8582 15.3906 14.9375 16.2659 14.9375 17.3455C14.9375 18.4252 15.8582 19.3005 16.994 19.3005Z" stroke="white"/>
<path d="M23.6971 19.3005C24.8329 19.3005 25.7536 18.4252 25.7536 17.3455C25.7536 16.2659 24.8329 15.3906 23.6971 15.3906C22.5613 15.3906 21.6406 16.2659 21.6406 17.3455C21.6406 18.4252 22.5613 19.3005 23.6971 19.3005Z" fill="#C21325" stroke="white"/>
<path d="M23.6971 19.3005C24.8329 19.3005 25.7536 18.4252 25.7536 17.3455C25.7536 16.2659 24.8329 15.3906 23.6971 15.3906C22.5613 15.3906 21.6406 16.2659 21.6406 17.3455C21.6406 18.4252 22.5613 19.3005 23.6971 19.3005Z" stroke="white"/>
<path d="M10.2747 19.3151C11.4102 19.3151 12.3307 18.4401 12.3307 17.3607C12.3307 16.2813 11.4102 15.4062 10.2747 15.4062C9.13925 15.4062 8.21875 16.2813 8.21875 17.3607C8.21875 18.4401 9.13925 19.3151 10.2747 19.3151Z" fill="#C21325"/>
<path d="M10.2747 19.3151C11.4102 19.3151 12.3307 18.4401 12.3307 17.3607C12.3307 16.2813 11.4102 15.4062 10.2747 15.4062C9.13925 15.4062 8.21875 16.2813 8.21875 17.3607C8.21875 18.4401 9.13925 19.3151 10.2747 19.3151Z" stroke="white"/>
</svg>
