<svg width="35" height="35" viewBox="0 0 35 35" fill="none" xmlns="http://www.w3.org/2000/svg">
<rect width="35" height="35" rx="5" fill="#222222"/>
<path fill-rule="evenodd" clip-rule="evenodd" d="M8 15C6.40039 15 5.40039 15.6667 5 17C5.60026 16.3336 6.30013 16.0836 7.09961 16.2501C7.55664 16.3451 7.88086 16.621 8.24414 16.9263C8.83008 17.4241 9.51367 17.9996 11 17.9996C12.5996 17.9996 13.5996 17.3329 14 15.9996C13.4004 16.6665 12.7005 16.9165 11.9004 16.7495C11.4434 16.6545 11.1191 16.3786 10.7559 16.0733C10.168 15.5731 9.4873 15 8 15ZM5 17.9996C3.40039 17.9996 2.40039 18.6663 2 19.9996C2.60091 19.3332 3.30078 19.0832 4.09961 19.2497C4.55664 19.3447 4.88086 19.6205 5.24414 19.9267C5.83008 20.4237 6.51367 21 8 21C9.59961 21 10.5996 20.3333 11 19C10.4004 19.6664 9.70052 19.9158 8.90039 19.7483C8.44336 19.6533 8.11914 19.3774 7.75586 19.072C7.16992 18.5743 6.48633 17.998 5 17.998V17.9996Z" fill="#06B6D4"/>
<path d="M20.2656 12.3594L21.8906 13.4427V18.8594L20.2656 17.776V12.3594Z" fill="#29B6F6"/>
<path d="M32.7344 16.4219L31.1094 17.5052V21.026L32.7344 19.9427V16.4219Z" fill="#0288D1"/>
<path d="M32.7344 12.625L31.1094 13.7083V15.6042L32.7344 14.5208V12.625Z" fill="#0288D1"/>
<path d="M29.4844 12.3594L27.8594 13.4427V18.8594L29.4844 17.776V12.3594Z" fill="#0288D1"/>
<path d="M20.2656 14.2552L24.8698 17.2344V15.3385L20.2656 12.3594V14.2552Z" fill="#29B6F6"/>
<path d="M29.4792 14.2552L24.875 17.2344V15.3385L29.4792 12.3594V14.2552Z" fill="#0288D1"/>
<path d="M29.4792 18.0365L24.875 21.0156V19.1198L29.4792 16.1406V18.0365Z" fill="#0288D1"/>
<path d="M32.7292 20.2083L28.125 23.1875V21.2917L32.7292 18.3125V20.2083Z" fill="#0288D1"/>
<path d="M28.125 21.228L24.875 19.125V21.0208L28.125 23.1239V21.228Z" fill="#29B6F6"/>
<path d="M17.5 23.75C20.9518 23.75 23.75 20.9518 23.75 17.5C23.75 14.0482 20.9518 11.25 17.5 11.25C14.0482 11.25 11.25 14.0482 11.25 17.5C11.25 20.9518 14.0482 23.75 17.5 23.75Z" fill="#4DB6AC"/>
<path d="M20.4209 16.7115H17.6453C17.5868 16.7115 17.549 16.6496 17.5759 16.5975L19.1478 13.5521C19.1884 13.4731 19.0868 13.3984 19.0234 13.4606L14.5859 17.8275C14.5362 17.8765 14.5709 17.9612 14.6406 17.9612H17.5593C17.6225 17.9612 17.6593 18.0321 17.6234 18.084L15.3965 21.2918C15.3434 21.3684 15.4447 21.4568 15.5134 21.394L20.4737 16.8471C20.5262 16.799 20.4922 16.7115 20.4209 16.7115Z" fill="white"/>
</svg>
