<svg width="35" height="35" viewBox="0 0 35 35" fill="none" xmlns="http://www.w3.org/2000/svg">
<rect width="35" height="35" rx="5" fill="#222222"/>
<path fill-rule="evenodd" clip-rule="evenodd" d="M31.1697 14.7914L26.8531 26.6778L21.7437 26.7596L17.3721 24.1397L19.5786 11.6855L31.1697 14.7914Z" fill="#E44D26"/>
<path fill-rule="evenodd" clip-rule="evenodd" d="M22.0272 25.7268L26.1566 25.6608L29.845 15.5027L25.1069 14.2332L22.0272 25.7268Z" fill="#F16529"/>
<path fill-rule="evenodd" clip-rule="evenodd" d="M22.255 16.6691L24.3079 17.2192L24.7078 15.7269L21.0684 14.7517L20.9953 15.1615L20.2492 19.3706L23.496 20.2406L23.8962 18.7472L21.9781 18.2332L22.255 16.6691ZM21.5716 20.5246L20.1156 20.1345L19.6908 22.533L22.4364 24.1781L22.4434 24.1776L22.8595 22.6248L22.8525 22.6253L21.3563 21.7432L21.5716 20.5246Z" fill="#EBEBEB"/>
<path fill-rule="evenodd" clip-rule="evenodd" d="M23.4932 20.2397L25.2798 20.7184L24.5931 22.6092L22.8542 22.6245L22.4382 24.1773L25.6406 24.126L25.7295 23.8797L27.1238 20.0413L27.2664 19.6501L23.8934 18.7463L23.4932 20.2397ZM24.3039 17.2144L24.303 17.2177L27.8076 18.1568L27.9264 17.8289L28.1956 17.0895L28.3372 16.6981L24.7031 15.7244L24.3039 17.2144Z" fill="white"/>
<path fill-rule="evenodd" clip-rule="evenodd" d="M17.1752 24.2788L13.0321 26.755L8.2059 26.6821L4 15.125L15.0392 12.1671L17.1752 24.2788Z" fill="#2062AF"/>
<path fill-rule="evenodd" clip-rule="evenodd" d="M9.78125 14.6094L12.7646 25.7432L12.7755 25.7434L16.1283 23.7395L14.2583 13.4097L9.78125 14.6094Z" fill="#3C9CD7"/>
<path fill-rule="evenodd" clip-rule="evenodd" d="M10.5679 17.5576L7.7362 19.8287L8.21698 21.1973L10.9451 18.9651L13.847 16.5908L13.6009 15.125L10.5679 17.5576Z" fill="white"/>
<path fill-rule="evenodd" clip-rule="evenodd" d="M7.73747 19.8329L8.21825 21.2015L10.9463 18.9693L10.5691 17.5618L7.73747 19.8329Z" fill="url(#paint0_linear_81_952)"/>
<path fill-rule="evenodd" clip-rule="evenodd" d="M13.5943 15.1257L10.5612 17.5583L10.9384 18.9658L13.8403 16.5914L13.5943 15.1257Z" fill="url(#paint1_linear_81_952)"/>
<path fill-rule="evenodd" clip-rule="evenodd" d="M7.73438 19.8281L8.21519 21.1966L12.9812 19.9368L13.3738 21.828L11.9317 22.7135L10.3179 22.7156L9.9168 21.5839L8.51728 21.9589L9.29791 24.1421L12.3642 24.267L14.9462 22.6458L14.1238 18.1161L7.73438 19.8281Z" fill="url(#paint2_linear_81_952)"/>
<path fill-rule="evenodd" clip-rule="evenodd" d="M10.9441 18.9837L7.73438 19.8438L8.21516 21.2123L11.3213 20.3912L10.9441 18.9837ZM11.9455 22.7206L11.9315 22.7292L10.3179 22.7313L9.9168 21.5995L8.51732 21.9745L9.29791 24.1577L12.364 24.2827L11.9455 22.7206Z" fill="black" fill-opacity="0.05098"/>
<path fill-rule="evenodd" clip-rule="evenodd" d="M6.65625 16.9844L13.5931 15.1257L13.8391 16.5914L7.2065 18.3686L6.65625 16.9844Z" fill="url(#paint3_linear_81_952)"/>
<path fill-rule="evenodd" clip-rule="evenodd" d="M10.1551 16.0469L6.65625 16.9844L7.2065 18.3686L10.538 17.476L10.1551 16.0469Z" fill="black" fill-opacity="0.05098"/>
<path fill-rule="evenodd" clip-rule="evenodd" d="M11.5625 12.5V7H23.5625V18H11.5625V12.5Z" fill="#007ACC"/>
<path fill-rule="evenodd" clip-rule="evenodd" d="M14.1934 12.5188V12.9673H15.7529V17.0377H16.8604V12.9673H18.4199V12.5268C18.4199 12.2798 18.4199 12.0784 18.4082 12.073C18.4082 12.0649 17.457 12.0622 16.3018 12.0622L14.2021 12.0703V12.5215L14.1934 12.5188ZM21.2041 12.0596C21.5098 12.1258 21.7441 12.252 21.9541 12.4525C22.0654 12.5627 22.2305 12.7551 22.2422 12.8044C22.2422 12.8205 21.7236 13.1427 21.4082 13.3218C21.3965 13.3298 21.3486 13.2833 21.2998 13.2117C21.1436 13.0085 20.9844 12.9198 20.7354 12.9037C20.375 12.8813 20.1357 13.055 20.1357 13.3433C20.1357 13.431 20.1533 13.4811 20.1895 13.5518C20.2705 13.7031 20.4209 13.7935 20.8857 13.9806C21.7441 14.319 22.1162 14.5419 22.3408 14.8606C22.5957 15.2178 22.6523 15.779 22.4814 16.1998C22.2891 16.659 21.8213 16.9696 21.1523 17.0717C20.9424 17.1048 20.4619 17.0994 20.2373 17.0636C19.7578 16.9813 19.2979 16.7611 19.0166 16.4782C18.9053 16.3681 18.6924 16.0736 18.7051 16.0548L18.8193 15.9885L19.2695 15.7495L19.6084 15.5678L19.6865 15.6645C19.7852 15.8077 20.0078 16.0002 20.1367 16.0664C20.5264 16.2508 21.0488 16.2257 21.3066 16.0118C21.418 15.9187 21.4658 15.8193 21.4658 15.6815C21.4658 15.5553 21.4443 15.4971 21.376 15.4013C21.2803 15.2804 21.0879 15.1811 20.5479 14.9617C19.9268 14.72 19.6631 14.5661 19.417 14.3289C19.2764 14.1856 19.1475 13.9627 19.0869 13.7792C19.042 13.6199 19.0273 13.2296 19.0693 13.072C19.1982 12.5224 19.6514 12.1374 20.2998 12.0273C20.5098 11.9888 21.0049 12.005 21.2119 12.0551L21.2041 12.0596Z" fill="white"/>
<defs>
<linearGradient id="paint0_linear_81_952" x1="8.96426" y1="17.9918" x2="9.71669" y2="20.8" gradientUnits="userSpaceOnUse">
<stop stop-color="#D1D3D4"/>
<stop offset="0.388" stop-color="#D1D3D4"/>
<stop offset="1" stop-color="#D1D3D4"/>
</linearGradient>
<linearGradient id="paint1_linear_81_952" x1="11.8753" y1="15.5863" x2="12.6574" y2="18.5052" gradientUnits="userSpaceOnUse">
<stop stop-color="#D1D3D4"/>
<stop offset="0.388" stop-color="#D1D3D4"/>
<stop offset="1" stop-color="#D1D3D4"/>
</linearGradient>
<linearGradient id="paint2_linear_81_952" x1="8.44432" y1="22.4776" x2="14.8337" y2="20.7656" gradientUnits="userSpaceOnUse">
<stop stop-color="#E8E7E5"/>
<stop offset="1" stop-color="white"/>
</linearGradient>
<linearGradient id="paint3_linear_81_952" x1="6.8477" y1="17.6989" x2="13.7846" y2="15.8402" gradientUnits="userSpaceOnUse">
<stop stop-color="#E8E7E5"/>
<stop offset="1" stop-color="white"/>
</linearGradient>
</defs>
</svg>
