<svg width="35" height="35" viewBox="0 0 35 35" fill="none" xmlns="http://www.w3.org/2000/svg">
<rect width="35" height="35" rx="5" fill="#222222"/>
<path fill-rule="evenodd" clip-rule="evenodd" d="M22.2782 14.0023H27.3294V14.9591H25.3255V19.993H24.3235V14.9591H22.2782V14.0023ZM31.5355 18.119C31.5248 18.0132 31.4772 17.9301 31.3945 17.8708C31.3107 17.8109 31.2031 17.7812 31.0705 17.7812C30.9776 17.7812 30.8978 17.7958 30.8309 17.8243C30.7647 17.8527 30.7131 17.8911 30.6774 17.9399C30.6423 17.9888 30.6248 18.0446 30.6231 18.1068C30.6231 18.1591 30.6355 18.2044 30.6593 18.2422C30.6831 18.2806 30.7148 18.3131 30.7562 18.3393C30.797 18.366 30.8423 18.3875 30.8921 18.4055C30.9425 18.4236 30.9924 18.4387 31.0428 18.4509L31.2744 18.509C31.3673 18.5311 31.4574 18.5607 31.544 18.5985C31.6301 18.6357 31.7083 18.6828 31.7768 18.7398C31.8454 18.7967 31.8997 18.8653 31.9394 18.9456C31.9796 19.0264 32 19.1205 32 19.2286C32 19.3751 31.9632 19.5036 31.8895 19.6146C31.8154 19.7251 31.7089 19.8117 31.569 19.8739C31.4296 19.9361 31.2614 19.9674 31.0632 19.9674C30.8717 19.9674 30.7046 19.9372 30.5642 19.8768C30.4231 19.8169 30.3127 19.7291 30.2334 19.614C30.1541 19.4984 30.1116 19.3577 30.1054 19.192H30.5449C30.5511 19.2786 30.5783 19.3507 30.6248 19.4094C30.6712 19.467 30.7324 19.5094 30.8071 19.5385C30.8825 19.5664 30.9669 19.5809 31.0598 19.5809C31.1566 19.5809 31.2421 19.5658 31.3163 19.5361C31.3894 19.5065 31.4472 19.4658 31.4885 19.4117C31.531 19.3594 31.552 19.2966 31.5525 19.2252C31.552 19.16 31.5327 19.106 31.4965 19.063C31.4591 19.0205 31.4075 18.9851 31.3413 18.956C31.275 18.9275 31.1974 18.9014 31.109 18.8787L30.8281 18.806C30.6253 18.7531 30.4645 18.6723 30.3467 18.5648C30.2288 18.4567 30.1705 18.3143 30.1705 18.1352C30.1705 17.9882 30.2096 17.8591 30.2895 17.7487C30.3682 17.6382 30.4758 17.5522 30.6123 17.4912C30.7494 17.4296 30.904 17.3993 31.0768 17.3993C31.2518 17.3993 31.4053 17.4296 31.5378 17.4912C31.6698 17.5522 31.774 17.6371 31.8493 17.7458C31.9247 17.8545 31.9637 17.9783 31.966 18.119H31.5355ZM29.2648 17.4331H29.7089V19.1879C29.7083 19.3495 29.6743 19.4873 29.6075 19.6036C29.5407 19.7198 29.4472 19.8082 29.3283 19.8704C29.2093 19.9326 29.07 19.964 28.912 19.964C28.7675 19.964 28.6378 19.9372 28.5223 19.8849C28.4067 19.8326 28.315 19.7547 28.2481 19.6518C28.1802 19.5483 28.1467 19.4205 28.1467 19.2664H28.5914C28.5919 19.3338 28.6072 19.392 28.6355 19.4408C28.6639 19.4896 28.7035 19.5268 28.7534 19.553C28.8043 19.5792 28.8632 19.5919 28.9289 19.5919C29.0003 19.5919 29.0609 19.5768 29.1108 19.546C29.16 19.5158 29.1986 19.4705 29.2246 19.41C29.2507 19.3501 29.2643 19.2763 29.2648 19.1879V17.4331ZM27.5548 19.9564C27.4812 19.9564 27.4189 19.9302 27.3668 19.8779C27.3147 19.8262 27.2886 19.7628 27.2892 19.6879C27.2886 19.6152 27.3147 19.553 27.3668 19.5007C27.4189 19.4484 27.4812 19.4222 27.5548 19.4222C27.6256 19.4222 27.6874 19.4484 27.7395 19.5007C27.7922 19.553 27.8188 19.6152 27.8194 19.6879C27.8188 19.7373 27.8069 19.7826 27.782 19.8233C27.7571 19.8646 27.7253 19.8965 27.6851 19.9204C27.6455 19.9442 27.6024 19.9564 27.5548 19.9564ZM8.92008 19.9483L4.25232 14H3V19.9907H4.00197V15.2806L7.69607 19.993H13.9707V19.0362H9.92148V17.4551H13.1778V16.4984H9.92148V14.9591H13.9707V14.0023H8.91951V14.9591H8.92008V19.9483ZM17.8387 18.2841L17.1817 17.4458L15.1783 20H16.4929L17.8387 18.2841ZM16.4929 14.0052H15.1817L19.8783 19.9953H21.193L18.8446 17.0023L21.1896 14.0093L19.8783 14.0116L18.1882 16.1659L16.4929 14.0052Z" fill="white"/>
</svg>
