<svg width="31" height="31" viewBox="0 0 31 31" fill="none" xmlns="http://www.w3.org/2000/svg">
<circle cx="15.5" cy="15.5" r="14.5" stroke="#C0C0C0" stroke-width="2"/>
<path fill-rule="evenodd" clip-rule="evenodd" d="M10.0666 8.27511C9.68614 7.87477 9.06931 7.87477 8.68886 8.27511C8.30841 8.67546 8.30841 9.32455 8.68886 9.72489L13.8394 15.1448L8.28534 20.9894C7.90489 21.3897 7.90489 22.0388 8.28534 22.4392C8.66579 22.8395 9.28262 22.8395 9.66306 22.4392L15.2172 16.5946L20.7474 22.4141C21.1278 22.8144 21.7447 22.8144 22.1251 22.4141C22.5056 22.0137 22.5056 21.3646 22.1251 20.9643L16.5949 15.1448L21.7216 9.75C22.102 9.34966 22.102 8.70057 21.7216 8.30022C21.3411 7.89988 20.7243 7.89988 20.3439 8.30022L15.2172 13.695L10.0666 8.27511Z" fill="#C0C0C0"/>
</svg>
