<svg width="35" height="35" viewBox="0 0 35 35" fill="none" xmlns="http://www.w3.org/2000/svg">
<rect width="35" height="35" rx="5" fill="black" fill-opacity="0.3"/>
<path fill-rule="evenodd" clip-rule="evenodd" d="M26.3537 8.63308C25.2008 7.47735 23.8287 6.56105 22.317 5.93738C20.8053 5.31371 19.1841 4.9951 17.5477 5.00006C10.6874 5.00006 5.10416 10.5569 5.10416 17.3876C5.10403 19.5614 5.67883 21.697 6.7708 23.5798L5 30L11.5999 28.2763C13.424 29.2658 15.468 29.785 17.5456 29.7865C20.0084 29.787 22.4161 29.0607 24.4642 27.6995C26.5122 26.3383 28.1086 24.4033 29.0514 22.1392C29.9943 19.8752 30.2412 17.3837 29.761 14.98C29.2808 12.5763 28.0951 10.3683 26.3537 8.63515V8.63308ZM17.5518 27.7C15.6971 27.6991 13.8769 27.2014 12.2821 26.2592L11.903 26.0343L7.9864 27.0552L9.02804 23.2564L8.78326 22.8666C7.42589 20.722 6.91081 18.1547 7.33656 15.6559C7.76231 13.157 9.09899 10.9021 11.0909 9.32257C13.0827 7.74301 15.59 6.9497 18.1328 7.09443C20.6757 7.23916 23.0756 8.31176 24.8735 10.107C26.3217 11.5484 27.3078 13.3846 27.7073 15.3836C28.1068 17.3826 27.9017 19.4546 27.118 21.3376C26.3342 23.2206 25.007 24.8301 23.304 25.9625C21.6011 27.095 19.599 27.6996 17.5508 27.7H17.5518ZM23.2288 19.982C22.9163 19.8255 21.3882 19.0792 21.1049 18.9755C20.8215 18.8719 20.6132 18.819 20.4018 19.132C20.1903 19.4451 19.5976 20.1385 19.4164 20.3468C19.2351 20.5552 19.0528 20.5821 18.7445 20.4256C18.4362 20.2691 17.4289 19.9426 16.2446 18.8874C15.5625 18.2614 14.9764 17.5392 14.505 16.7439C14.3227 16.4329 14.4852 16.266 14.6436 16.1147C14.8019 15.9634 14.956 15.754 15.1092 15.5726C15.2387 15.4163 15.344 15.2416 15.4217 15.0543C15.463 14.969 15.4824 14.8748 15.478 14.7802C15.4736 14.6855 15.4457 14.5935 15.3967 14.5122C15.3123 14.3568 14.6873 12.8331 14.4373 12.2122C14.1873 11.5913 13.9279 11.6939 13.7363 11.6794C13.5446 11.6649 13.3477 11.6701 13.1425 11.6701C12.9843 11.6738 12.8286 11.71 12.6852 11.7766C12.5418 11.8431 12.4138 11.9385 12.3092 12.0567C12.029 12.3646 11.2238 13.116 11.2238 14.6397C11.2238 16.1634 12.3373 17.6332 12.4936 17.8426C12.6498 18.052 14.6873 21.1771 17.8122 22.5173C18.5539 22.8345 19.133 23.0252 19.583 23.1724C20.2176 23.3628 20.8879 23.4044 21.5413 23.2937C22.1392 23.2066 23.3809 22.5463 23.6423 21.8239C23.9038 21.1014 23.9027 20.4764 23.8246 20.3531C23.7465 20.2297 23.5444 20.1395 23.2309 19.981L23.2288 19.982Z" fill="white"/>
</svg>
