<svg width="35" height="35" viewBox="0 0 35 35" fill="none" xmlns="http://www.w3.org/2000/svg">
<rect width="35" height="35" rx="5" fill="black" fill-opacity="0.3"/>
<path fill-rule="evenodd" clip-rule="evenodd" d="M17.4993 6.00415C10.5973 6.00415 5 11.5122 5 18.3062C5 23.7421 8.5811 28.3519 13.5477 29.9794C14.1729 30.0934 14.4026 29.7119 14.4026 29.3868C14.4026 29.0935 14.3902 28.1245 14.3851 27.0973C10.9074 27.8416 10.1742 25.6451 10.1742 25.6451C9.60581 24.2229 8.78641 23.8447 8.78641 23.8447C7.65237 23.0804 8.8727 23.0972 8.8727 23.0972C10.1276 23.1836 10.7883 24.3642 10.7883 24.3642C11.9039 26.245 13.7134 25.7005 14.4262 25.3867C14.5387 24.5917 14.8617 24.0486 15.2197 23.7412C12.4432 23.431 9.5246 22.3757 9.5246 17.6614C9.5246 16.3187 10.0137 15.2207 10.8123 14.3597C10.6822 14.0491 10.254 12.7986 10.9327 11.1044C10.9327 11.1044 11.9823 10.7734 14.3713 12.3654C15.3678 12.0934 16.4368 11.9562 17.4984 11.9517C18.5609 11.9562 19.6317 12.0929 20.6297 12.3654C23.0154 10.7743 24.0641 11.1044 24.0641 11.1044C24.7437 12.799 24.3174 14.0505 24.1873 14.3597C24.9886 15.2207 25.4736 16.3187 25.4736 17.6614C25.4736 22.3866 22.5485 23.4255 19.766 23.7302C20.2144 24.1117 20.6149 24.8605 20.6149 26.0075C20.6149 27.6526 20.6006 28.9786 20.6006 29.3832C20.6006 29.7106 20.8258 30.0934 21.4597 29.9734C26.4235 28.3451 30 23.7347 30 18.3021C30 11.509 24.4037 6 17.5002 6L17.4993 6.00411L17.4993 6.00415Z" fill="white"/>
</svg>
