<svg width="15" height="18" viewBox="0 0 15 18" fill="none" xmlns="http://www.w3.org/2000/svg">
<path d="M1 17V1H9.17157C9.70201 1 10.2107 1.21071 10.5858 1.58579L13.4142 4.41421C13.7893 4.78929 14 5.29799 14 5.82843V17H1Z" fill="#2C01A6" stroke="#2C01A6"/>
<path d="M10.2117 0.105469C10.1415 0.0424805 10.042 0 9.9439 0C9.92341 0 9.90146 0 9.88097 0.00732422H0.892683C0.652683 0.00732422 0.425854 0.106934 0.263415 0.269531C0.0995122 0.432129 0 0.651855 0 0.899414V17.1079C0 17.3555 0.0995122 17.5752 0.261951 17.7378C0.42439 17.9004 0.643902 18 0.89122 18C5.4322 18 9.57658 18 14.0941 18C14.3415 18 14.561 17.9004 14.7234 17.7378C14.8859 17.5752 14.9854 17.3555 14.9854 17.1079V5.20313C14.9927 5.16797 15 5.14014 15 5.10352C15 4.9834 14.9429 4.87646 14.8654 4.79883L10.2615 0.134766C10.2468 0.120117 10.2395 0.114258 10.2263 0.106934H10.2117V0.105469ZM7.09902 12.2681V7.15723C7.09902 6.93896 7.27463 6.76318 7.49854 6.76318C7.71659 6.76318 7.89805 6.93896 7.89805 7.15723V12.2637L9.73024 10.6626C9.89268 10.519 10.1429 10.5322 10.2863 10.6948C10.4298 10.8574 10.4166 11.1035 10.2541 11.2471L7.76341 13.4238C7.60976 13.5586 7.38293 13.5542 7.23512 13.4194L4.74878 11.2456C4.58634 11.1021 4.56732 10.856 4.71659 10.6934C4.86 10.5308 5.11024 10.5176 5.27268 10.6611L7.10488 12.2622L7.09902 12.2681ZM9.54 0.807129V4.29785C9.54 4.63037 9.67463 4.93506 9.89415 5.15478C10.1137 5.37451 10.418 5.50928 10.7502 5.50928H14.1732V17.1094C14.1732 17.1313 14.1659 17.1592 14.1454 17.1724C14.1307 17.187 14.1102 17.2002 14.0824 17.2002C10.4868 17.2002 4.38293 17.2002 0.885366 17.2002C0.863415 17.2002 0.83561 17.1929 0.822439 17.1724C0.807805 17.1577 0.794634 17.1299 0.794634 17.1094V0.899414C0.794634 0.871582 0.801951 0.849609 0.822439 0.836426C0.837073 0.821777 0.857561 0.808594 0.885366 0.808594H9.53415H9.54V0.807129ZM10.339 4.29785V1.37402L13.6273 4.70801H10.7488C10.6361 4.70801 10.5366 4.6582 10.459 4.58789C10.3888 4.51611 10.339 4.41064 10.339 4.29785Z" fill="white"/>
</svg>
