<svg width="35" height="35" viewBox="0 0 35 35" fill="none" xmlns="http://www.w3.org/2000/svg">
<rect width="35" height="35" rx="5" fill="#222222"/>
<path fill-rule="evenodd" clip-rule="evenodd" d="M18.444 25.9887L12.5521 24.9655L12.4972 24.9535L15.5286 21.4141C16.5336 20.249 17.5977 19.0179 18.5376 17.8507C18.5376 17.8328 15.4085 9.37099 15.3923 9.34101C15.3861 9.33102 13.256 12.9424 10.2307 18.0926L5.04069 26.9321L5.00203 27L14.6313 26.998L24.2607 26.996L18.4257 25.9847L18.444 25.9887ZM30 24.9115C30 24.9075 28.5718 22.4713 26.8282 19.5015L23.6564 14.0995L19.9597 11.0518C17.9252 9.37699 16.2549 8.002 16.2488 8C16.263 8.05196 16.2834 8.09993 16.3078 8.14789L20.3239 16.6057L24.2668 24.9115L27.1334 24.9155C28.7101 24.9195 30 24.9155 30 24.9115Z" fill="#0089D6"/>
</svg>
