<svg width="35" height="35" viewBox="0 0 35 35" fill="none" xmlns="http://www.w3.org/2000/svg">
<rect width="35" height="35" rx="5" fill="#222222"/>
<path fill-rule="evenodd" clip-rule="evenodd" d="M28 17.5026C28 16.0893 26.2585 14.7506 23.5874 13.9189C24.2043 11.1531 23.9292 8.95321 22.7227 8.24829C22.4441 8.08334 22.1194 8.00521 21.7639 8.00521V8.97578C21.9604 8.97578 22.1194 9.01572 22.2527 9.08864C22.8354 9.42721 23.0867 10.719 22.8901 12.3806C22.8423 12.7886 22.7654 13.2192 22.6714 13.6585C21.8323 13.4502 20.9163 13.2887 19.9541 13.1845C19.3765 12.3806 18.7766 11.6496 18.1733 11.0107C19.5679 9.69113 20.877 8.97057 21.7673 8.97057V8C20.5898 8 19.05 8.85251 17.4915 10.3318C15.9329 8.86119 14.3931 8.01736 13.2156 8.01736V8.98794C14.1008 8.98794 15.415 9.70502 16.8113 11.0142C16.2114 11.6531 15.6133 12.3789 15.0442 13.1845C14.0769 13.2887 13.1609 13.4502 12.3218 13.662C12.2227 13.2279 12.1509 12.806 12.0996 12.4014C11.8979 10.7398 12.1475 9.44805 12.7251 9.10427C12.8533 9.02614 13.0208 8.99141 13.2173 8.99141V8.02257C12.8584 8.02257 12.532 8.1007 12.25 8.26565C11.0469 8.97057 10.7769 11.167 11.3989 13.9242C8.73291 14.7576 7 16.0928 7 17.5026C7 18.9159 8.74145 20.2546 11.4126 21.0863C10.7957 23.8521 11.0708 26.052 12.2773 26.7569C12.5559 26.9219 12.8806 27 13.2412 27C14.4187 27 15.9585 26.1475 17.5171 24.6682C19.0757 26.1388 20.6155 26.9826 21.793 26.9826C22.1519 26.9826 22.4783 26.9045 22.7603 26.7396C23.9634 26.0346 24.2334 23.8383 23.6113 21.0811C26.2671 20.2511 28 18.9107 28 17.5026ZM19.4517 17.5026C19.4517 16.4053 18.5767 15.5146 17.4949 15.5146C16.4148 15.5146 15.5381 16.4035 15.5381 17.5026C15.5381 18.6017 16.4131 19.4906 17.4949 19.4906C18.5767 19.4889 19.4517 18.5999 19.4517 17.5026ZM22.427 14.6013C22.2681 15.1621 22.0715 15.7403 21.8494 16.3185C21.6733 15.9712 21.4905 15.6222 21.2888 15.275C21.0923 14.9277 20.8821 14.5874 20.6719 14.2575C21.2803 14.3495 21.8665 14.4624 22.427 14.6013ZM20.4668 19.2337C20.1335 19.8205 19.79 20.3779 19.4346 20.8953C18.7971 20.9526 18.1511 20.9821 17.5 20.9821C16.854 20.9821 16.208 20.9508 15.574 20.8987C15.2185 20.3813 14.8716 19.8292 14.5383 19.2458C14.2136 18.6763 13.918 18.0981 13.6479 17.5148C13.9128 16.9314 14.2136 16.3497 14.5332 15.7802C14.8665 15.1934 15.21 14.636 15.5654 14.1186C16.2029 14.0613 16.8489 14.0318 17.5 14.0318C18.146 14.0318 18.792 14.0631 19.426 14.1151C19.7815 14.6326 20.1284 15.1847 20.4617 15.7681C20.7864 16.3376 21.082 16.9157 21.3521 17.4991C21.082 18.0808 20.7881 18.6624 20.4668 19.2337ZM21.8494 18.6676C22.0801 19.251 22.2766 19.8327 22.4407 20.3987C21.8801 20.5376 21.2888 20.6557 20.677 20.746C20.8872 20.4109 21.0957 20.0671 21.2939 19.7146C21.4888 19.3674 21.6733 19.0149 21.8494 18.6676ZM17.5085 23.307C17.1104 22.8903 16.7122 22.4249 16.3191 21.9162C16.7036 21.9336 17.0984 21.9475 17.4966 21.9475C17.8982 21.9475 18.2964 21.9388 18.686 21.9162C18.2998 22.4249 17.9016 22.8903 17.5085 23.307ZM14.3247 20.746C13.7163 20.6539 13.1301 20.5411 12.5696 20.4022C12.7285 19.8414 12.925 19.2632 13.1472 18.685C13.3232 19.0323 13.5061 19.3812 13.7078 19.7285C13.9094 20.0775 14.1145 20.4161 14.3247 20.746ZM17.4863 11.6965C17.8845 12.1132 18.2827 12.5785 18.6758 13.0873C18.2913 13.0699 17.8965 13.056 17.4983 13.056C17.0967 13.056 16.6985 13.0647 16.3088 13.0873C16.6951 12.5785 17.0933 12.1132 17.4863 11.6965ZM14.3196 14.2575C14.1094 14.5926 13.9009 14.9364 13.7026 15.2889C13.5061 15.6361 13.3215 15.9851 13.1455 16.3324C12.9148 15.749 12.7183 15.1673 12.5542 14.6013C13.1165 14.4659 13.7078 14.3495 14.3196 14.2575ZM10.4453 19.7025C8.92944 19.0461 7.9502 18.185 7.9502 17.5026C7.9502 16.8203 8.93115 15.9539 10.4453 15.3028C10.8127 15.1413 11.2161 14.9989 11.6313 14.8635C11.8757 15.716 12.197 16.6032 12.5952 17.5113C12.2021 18.4159 11.8843 19.2979 11.645 20.1469C11.2212 20.0115 10.8179 19.8639 10.4453 19.7025ZM12.749 25.9166C12.1663 25.578 11.915 24.2862 12.1116 22.6246C12.1594 22.2166 12.2363 21.786 12.3303 21.3467C13.1694 21.5551 14.0854 21.7165 15.0476 21.8207C15.6252 22.6246 16.2251 23.3556 16.8284 23.9945C15.4321 25.3123 14.123 26.0346 13.2327 26.0346C13.0396 26.0294 12.8772 25.9912 12.749 25.9166ZM22.9021 22.6038C23.1038 24.2654 22.8542 25.5572 22.2766 25.9009C22.1484 25.9791 21.981 26.0138 21.7844 26.0138C20.8992 26.0138 19.585 25.2967 18.1887 23.9876C18.7886 23.3486 19.3867 22.6229 19.9558 21.8172C20.9231 21.7131 21.8391 21.5516 22.6782 21.338C22.7773 21.7773 22.8542 22.1992 22.9021 22.6038ZM24.5496 19.7025C24.1821 19.8639 23.7788 20.0063 23.3635 20.1417C23.1191 19.2892 22.7979 18.402 22.3997 17.4939C22.7927 16.5893 23.1106 15.7073 23.3499 14.8583C23.7737 14.9937 24.1753 15.1413 24.553 15.301C26.0688 15.9573 27.0481 16.8185 27.0481 17.5009C27.0447 18.185 26.0654 19.0496 24.5496 19.7025Z" fill="#00D8FF"/>
</svg>
